<svg width="32" height="32" viewBox="0 0 32 32" fill="none" xmlns="http://www.w3.org/2000/svg">
<rect width="32" height="32" fill="#1E1E1E"/>
<rect width="32" height="32" rx="16" fill="black"/>
<mask id="path-2-outside-1_0_1" maskUnits="userSpaceOnUse" x="1" y="11" width="30" height="12" fill="black">
<rect fill="white" x="1" y="11" width="30" height="12"/>
<path d="M5.67 21.46C5.33667 21.46 5.07333 21.34 4.88 21.1C4.69333 20.8667 4.6 20.5267 4.6 20.08V18.38C4.6 18.0467 4.55 17.76 4.45 17.52C4.35 17.28 4.16333 17.14 3.89 17.1C3.82333 17.0867 3.76667 17.0533 3.72 17C3.67333 16.9467 3.65 16.8867 3.65 16.82C3.65 16.7533 3.67333 16.6933 3.72 16.64C3.76667 16.5867 3.82333 16.5567 3.89 16.55C4.16333 16.51 4.35 16.37 4.45 16.13C4.55 15.8833 4.6 15.5967 4.6 15.27V13.57C4.6 13.1233 4.69333 12.7833 4.88 12.55C5.07333 12.31 5.33667 12.19 5.67 12.19H6.18C6.25333 12.19 6.31333 12.2167 6.36 12.27C6.41333 12.3167 6.44 12.3767 6.44 12.45C6.44 12.5233 6.41333 12.5867 6.36 12.64C6.31333 12.6867 6.25333 12.71 6.18 12.71H5.79C5.38333 12.71 5.18 13.0067 5.18 13.6V15.29C5.18 15.73 5.11333 16.07 4.98 16.31C4.85333 16.55 4.67 16.72 4.43 16.82C4.67 16.9267 4.85333 17.1 4.98 17.34C5.11333 17.58 5.18 17.92 5.18 18.36V20.05C5.18 20.6433 5.38333 20.94 5.79 20.94H6.18C6.25333 20.94 6.31333 20.9633 6.36 21.01C6.41333 21.0633 6.44 21.1267 6.44 21.2C6.44 21.2667 6.41333 21.3267 6.36 21.38C6.31333 21.4333 6.25333 21.46 6.18 21.46H5.67ZM10.8395 20C10.6328 20 10.5295 19.89 10.5295 19.67V13.32C10.5295 13.1 10.6395 12.99 10.8595 12.99H13.5795C14.2395 12.99 14.7395 13.1433 15.0795 13.45C15.4261 13.7567 15.5995 14.2133 15.5995 14.82C15.5995 15.96 14.9995 16.5667 13.7995 16.64L15.3895 19.61C15.4428 19.7233 15.4561 19.8167 15.4295 19.89C15.4028 19.9633 15.3361 20 15.2295 20H15.1395C14.9528 20 14.8228 19.92 14.7495 19.76L13.1195 16.65H11.1395V19.67C11.1395 19.89 11.0395 20 10.8395 20ZM11.1395 16.06H13.5295C14.0095 16.06 14.3661 15.96 14.5995 15.76C14.8395 15.56 14.9595 15.2467 14.9595 14.82C14.9595 14.3933 14.8395 14.08 14.5995 13.88C14.3661 13.68 14.0095 13.58 13.5295 13.58H11.1395V16.06ZM17.2359 20C17.0293 20 16.9259 19.89 16.9259 19.67V13.32C16.9259 13.1 17.0359 12.99 17.2559 12.99H19.9759C20.6359 12.99 21.1359 13.1433 21.4759 13.45C21.8226 13.7567 21.9959 14.2133 21.9959 14.82C21.9959 15.96 21.3959 16.5667 20.1959 16.64L21.7859 19.61C21.8393 19.7233 21.8526 19.8167 21.8259 19.89C21.7993 19.9633 21.7326 20 21.6259 20H21.5359C21.3493 20 21.2193 19.92 21.1459 19.76L19.5159 16.65H17.5359V19.67C17.5359 19.89 17.4359 20 17.2359 20ZM17.5359 16.06H19.9259C20.4059 16.06 20.7626 15.96 20.9959 15.76C21.2359 15.56 21.3559 15.2467 21.3559 14.82C21.3559 14.3933 21.2359 14.08 20.9959 13.88C20.7626 13.68 20.4059 13.58 19.9259 13.58H17.5359V16.06ZM25.9952 21.46C25.9285 21.46 25.8685 21.4333 25.8152 21.38C25.7618 21.3267 25.7352 21.2667 25.7352 21.2C25.7352 21.1267 25.7618 21.0633 25.8152 21.01C25.8685 20.9633 25.9285 20.94 25.9952 20.94H26.3852C26.7918 20.94 26.9952 20.6433 26.9952 20.05V18.36C26.9952 17.92 27.0585 17.58 27.1852 17.34C27.3185 17.1 27.5052 16.9267 27.7452 16.82C27.5052 16.72 27.3185 16.55 27.1852 16.31C27.0585 16.07 26.9952 15.73 26.9952 15.29V13.6C26.9952 13.0067 26.7918 12.71 26.3852 12.71H25.9952C25.9285 12.71 25.8685 12.6867 25.8152 12.64C25.7618 12.5867 25.7352 12.5233 25.7352 12.45C25.7352 12.3767 25.7618 12.3167 25.8152 12.27C25.8685 12.2167 25.9285 12.19 25.9952 12.19H26.5052C26.8385 12.19 27.0985 12.31 27.2852 12.55C27.4785 12.7833 27.5752 13.1233 27.5752 13.57V15.27C27.5752 15.5967 27.6252 15.8833 27.7252 16.13C27.8318 16.37 28.0185 16.51 28.2852 16.55C28.3585 16.5567 28.4152 16.5867 28.4552 16.64C28.5018 16.6933 28.5252 16.7533 28.5252 16.82C28.5252 16.8867 28.5018 16.9467 28.4552 17C28.4152 17.0533 28.3585 17.0867 28.2852 17.1C28.0185 17.14 27.8318 17.28 27.7252 17.52C27.6252 17.76 27.5752 18.0467 27.5752 18.38V20.08C27.5752 20.5267 27.4785 20.8667 27.2852 21.1C27.0985 21.34 26.8385 21.46 26.5052 21.46H25.9952Z"/>
</mask>
<path d="M5.67 21.46C5.33667 21.46 5.07333 21.34 4.88 21.1C4.69333 20.8667 4.6 20.5267 4.6 20.08V18.38C4.6 18.0467 4.55 17.76 4.45 17.52C4.35 17.28 4.16333 17.14 3.89 17.1C3.82333 17.0867 3.76667 17.0533 3.72 17C3.67333 16.9467 3.65 16.8867 3.65 16.82C3.65 16.7533 3.67333 16.6933 3.72 16.64C3.76667 16.5867 3.82333 16.5567 3.89 16.55C4.16333 16.51 4.35 16.37 4.45 16.13C4.55 15.8833 4.6 15.5967 4.6 15.27V13.57C4.6 13.1233 4.69333 12.7833 4.88 12.55C5.07333 12.31 5.33667 12.19 5.67 12.19H6.18C6.25333 12.19 6.31333 12.2167 6.36 12.27C6.41333 12.3167 6.44 12.3767 6.44 12.45C6.44 12.5233 6.41333 12.5867 6.36 12.64C6.31333 12.6867 6.25333 12.71 6.18 12.71H5.79C5.38333 12.71 5.18 13.0067 5.18 13.6V15.29C5.18 15.73 5.11333 16.07 4.98 16.31C4.85333 16.55 4.67 16.72 4.43 16.82C4.67 16.9267 4.85333 17.1 4.98 17.34C5.11333 17.58 5.18 17.92 5.18 18.36V20.05C5.18 20.6433 5.38333 20.94 5.79 20.94H6.18C6.25333 20.94 6.31333 20.9633 6.36 21.01C6.41333 21.0633 6.44 21.1267 6.44 21.2C6.44 21.2667 6.41333 21.3267 6.36 21.38C6.31333 21.4333 6.25333 21.46 6.18 21.46H5.67ZM10.8395 20C10.6328 20 10.5295 19.89 10.5295 19.67V13.32C10.5295 13.1 10.6395 12.99 10.8595 12.99H13.5795C14.2395 12.99 14.7395 13.1433 15.0795 13.45C15.4261 13.7567 15.5995 14.2133 15.5995 14.82C15.5995 15.96 14.9995 16.5667 13.7995 16.64L15.3895 19.61C15.4428 19.7233 15.4561 19.8167 15.4295 19.89C15.4028 19.9633 15.3361 20 15.2295 20H15.1395C14.9528 20 14.8228 19.92 14.7495 19.76L13.1195 16.65H11.1395V19.67C11.1395 19.89 11.0395 20 10.8395 20ZM11.1395 16.06H13.5295C14.0095 16.06 14.3661 15.96 14.5995 15.76C14.8395 15.56 14.9595 15.2467 14.9595 14.82C14.9595 14.3933 14.8395 14.08 14.5995 13.88C14.3661 13.68 14.0095 13.58 13.5295 13.58H11.1395V16.06ZM17.2359 20C17.0293 20 16.9259 19.89 16.9259 19.67V13.32C16.9259 13.1 17.0359 12.99 17.2559 12.99H19.9759C20.6359 12.99 21.1359 13.1433 21.4759 13.45C21.8226 13.7567 21.9959 14.2133 21.9959 14.82C21.9959 15.96 21.3959 16.5667 20.1959 16.64L21.7859 19.61C21.8393 19.7233 21.8526 19.8167 21.8259 19.89C21.7993 19.9633 21.7326 20 21.6259 20H21.5359C21.3493 20 21.2193 19.92 21.1459 19.76L19.5159 16.65H17.5359V19.67C17.5359 19.89 17.4359 20 17.2359 20ZM17.5359 16.06H19.9259C20.4059 16.06 20.7626 15.96 20.9959 15.76C21.2359 15.56 21.3559 15.2467 21.3559 14.82C21.3559 14.3933 21.2359 14.08 20.9959 13.88C20.7626 13.68 20.4059 13.58 19.9259 13.58H17.5359V16.06ZM25.9952 21.46C25.9285 21.46 25.8685 21.4333 25.8152 21.38C25.7618 21.3267 25.7352 21.2667 25.7352 21.2C25.7352 21.1267 25.7618 21.0633 25.8152 21.01C25.8685 20.9633 25.9285 20.94 25.9952 20.94H26.3852C26.7918 20.94 26.9952 20.6433 26.9952 20.05V18.36C26.9952 17.92 27.0585 17.58 27.1852 17.34C27.3185 17.1 27.5052 16.9267 27.7452 16.82C27.5052 16.72 27.3185 16.55 27.1852 16.31C27.0585 16.07 26.9952 15.73 26.9952 15.29V13.6C26.9952 13.0067 26.7918 12.71 26.3852 12.71H25.9952C25.9285 12.71 25.8685 12.6867 25.8152 12.64C25.7618 12.5867 25.7352 12.5233 25.7352 12.45C25.7352 12.3767 25.7618 12.3167 25.8152 12.27C25.8685 12.2167 25.9285 12.19 25.9952 12.19H26.5052C26.8385 12.19 27.0985 12.31 27.2852 12.55C27.4785 12.7833 27.5752 13.1233 27.5752 13.57V15.27C27.5752 15.5967 27.6252 15.8833 27.7252 16.13C27.8318 16.37 28.0185 16.51 28.2852 16.55C28.3585 16.5567 28.4152 16.5867 28.4552 16.64C28.5018 16.6933 28.5252 16.7533 28.5252 16.82C28.5252 16.8867 28.5018 16.9467 28.4552 17C28.4152 17.0533 28.3585 17.0867 28.2852 17.1C28.0185 17.14 27.8318 17.28 27.7252 17.52C27.6252 17.76 27.5752 18.0467 27.5752 18.38V20.08C27.5752 20.5267 27.4785 20.8667 27.2852 21.1C27.0985 21.34 26.8385 21.46 26.5052 21.46H25.9952Z" fill="white"/>
<path d="M4.88 21.1L4.09913 21.7247L4.10125 21.7273L4.88 21.1ZM4.45 17.52L3.52692 17.9046L4.45 17.52ZM3.89 17.1L3.69388 18.0806L3.71943 18.0857L3.7452 18.0895L3.89 17.1ZM3.72 17L2.96742 17.6585L2.96742 17.6585L3.72 17ZM3.72 16.64L2.96742 15.9815L2.96742 15.9815L3.72 16.64ZM3.89 16.55L3.98951 17.545L4.01222 17.5428L4.0348 17.5395L3.89 16.55ZM4.45 16.13L5.37312 16.5146L5.37674 16.5057L4.45 16.13ZM4.88 12.55L4.10124 11.9227L4.09913 11.9253L4.88 12.55ZM6.36 12.27L5.60743 12.9285L5.65132 12.9787L5.70149 13.0226L6.36 12.27ZM6.36 12.64L5.65289 11.9329L5.65289 11.9329L6.36 12.64ZM4.98 16.31L4.10584 15.8244L4.10063 15.8337L4.09562 15.8432L4.98 16.31ZM4.43 16.82L4.04538 15.8969L1.90111 16.7904L4.02386 17.7338L4.43 16.82ZM4.98 17.34L4.09562 17.8068L4.10063 17.8163L4.10584 17.8256L4.98 17.34ZM6.36 21.01L7.06711 20.3029L7.06711 20.3029L6.36 21.01ZM6.36 21.38L5.65289 20.6729L5.62935 20.6964L5.60742 20.7215L6.36 21.38ZM5.67 21.46V20.46C5.64667 20.46 5.63415 20.4579 5.63029 20.4571C5.62681 20.4564 5.62995 20.4567 5.63717 20.46C5.64057 20.4616 5.64422 20.4635 5.6479 20.4657C5.65157 20.468 5.65471 20.4702 5.65721 20.4722C5.66253 20.4764 5.66278 20.4777 5.65875 20.4727L4.88 21.1L4.10125 21.7273C4.50146 22.2241 5.06234 22.46 5.67 22.46V21.46ZM4.88 21.1L5.66087 20.4753C5.67125 20.4883 5.6 20.4074 5.6 20.08H4.6H3.6C3.6 20.646 3.71542 21.2451 4.09913 21.7247L4.88 21.1ZM4.6 20.08H5.6V18.38H4.6H3.6V20.08H4.6ZM4.6 18.38H5.6C5.6 17.9503 5.53598 17.5264 5.37308 17.1354L4.45 17.52L3.52692 17.9046C3.56402 17.9936 3.6 18.143 3.6 18.38H4.6ZM4.45 17.52L5.37308 17.1354C5.12797 16.5471 4.6294 16.1976 4.0348 16.1105L3.89 17.1L3.7452 18.0895C3.74708 18.0897 3.69779 18.0821 3.635 18.035C3.56963 17.986 3.53755 17.9301 3.52692 17.9046L4.45 17.52ZM3.89 17.1L4.08612 16.1194C4.15853 16.1339 4.2333 16.1612 4.30452 16.2031C4.37531 16.2447 4.43095 16.2939 4.47258 16.3415L3.72 17L2.96742 17.6585C3.15247 17.87 3.40171 18.0221 3.69388 18.0806L3.89 17.1ZM3.72 17L4.47258 16.3415C4.51811 16.3935 4.56499 16.4638 4.5995 16.5526C4.63437 16.6422 4.65 16.7338 4.65 16.82H3.65H2.65C2.65 17.145 2.77218 17.4354 2.96742 17.6585L3.72 17ZM3.65 16.82H4.65C4.65 16.9062 4.63437 16.9978 4.5995 17.0874C4.56499 17.1762 4.51811 17.2465 4.47258 17.2985L3.72 16.64L2.96742 15.9815C2.77218 16.2046 2.65 16.495 2.65 16.82H3.65ZM3.72 16.64L4.47258 17.2985C4.424 17.354 4.35568 17.4135 4.26539 17.4613C4.17417 17.5096 4.07912 17.5361 3.98951 17.545L3.89 16.55L3.79049 15.555C3.45574 15.5884 3.17059 15.7493 2.96742 15.9815L3.72 16.64ZM3.89 16.55L4.0348 17.5395C4.6294 17.4524 5.12797 17.1029 5.37308 16.5146L4.45 16.13L3.52692 15.7454C3.53755 15.7199 3.56963 15.664 3.635 15.615C3.69779 15.5679 3.74708 15.5603 3.7452 15.5605L3.89 16.55ZM4.45 16.13L5.37674 16.5057C5.53476 16.1159 5.6 15.697 5.6 15.27H4.6H3.6C3.6 15.4963 3.56524 15.6507 3.52326 15.7543L4.45 16.13ZM4.6 15.27H5.6V13.57H4.6H3.6V15.27H4.6ZM4.6 13.57H5.6C5.6 13.2426 5.67125 13.1617 5.66087 13.1747L4.88 12.55L4.09913 11.9253C3.71542 12.4049 3.6 13.004 3.6 13.57H4.6ZM4.88 12.55L5.65875 13.1773C5.66278 13.1723 5.66253 13.1736 5.65721 13.1778C5.65471 13.1798 5.65157 13.182 5.6479 13.1843C5.64422 13.1865 5.64057 13.1884 5.63717 13.19C5.62995 13.1933 5.62681 13.1936 5.63029 13.1929C5.63415 13.1921 5.64667 13.19 5.67 13.19V12.19V11.19C5.06234 11.19 4.50146 11.4259 4.10125 11.9227L4.88 12.55ZM5.67 12.19V13.19H6.18V12.19V11.19H5.67V12.19ZM6.18 12.19V13.19C6.09316 13.19 5.98591 13.1736 5.87386 13.1238C5.76094 13.0736 5.67197 13.0023 5.60743 12.9285L6.36 12.27L7.11258 11.6115C6.8686 11.3327 6.53024 11.19 6.18 11.19V12.19ZM6.36 12.27L5.70149 13.0226C5.62773 12.958 5.55638 12.8691 5.50619 12.7561C5.45639 12.6441 5.44 12.5368 5.44 12.45H6.44H7.44C7.44 12.0998 7.29733 11.7614 7.01851 11.5174L6.36 12.27ZM6.44 12.45H5.44C5.44 12.3625 5.45657 12.2637 5.49836 12.1644C5.53992 12.0657 5.59705 11.9887 5.65289 11.9329L6.36 12.64L7.06711 13.3471C7.30199 13.1122 7.44 12.7969 7.44 12.45H6.44ZM6.36 12.64L5.65289 11.9329C5.72508 11.8607 5.81502 11.8004 5.91755 11.7605C6.01803 11.7214 6.10977 11.71 6.18 11.71V12.71V13.71C6.48625 13.71 6.81124 13.603 7.06711 13.3471L6.36 12.64ZM6.18 12.71V11.71H5.79V12.71V13.71H6.18V12.71ZM5.79 12.71V11.71C5.30705 11.71 4.82245 11.9078 4.50765 12.3672C4.23943 12.7585 4.18 13.2202 4.18 13.6H5.18H6.18C6.18 13.5056 6.18839 13.4536 6.19301 13.4334C6.19764 13.4131 6.19393 13.4445 6.15735 13.4978C6.1163 13.5577 6.04965 13.6215 5.96048 13.6649C5.87598 13.706 5.81006 13.71 5.79 13.71V12.71ZM5.18 13.6H4.18V15.29H5.18H6.18V13.6H5.18ZM5.18 15.29H4.18C4.18 15.6521 4.12122 15.7967 4.10584 15.8244L4.98 16.31L5.85416 16.7956C6.10545 16.3433 6.18 15.8079 6.18 15.29H5.18ZM4.98 16.31L4.09562 15.8432C4.08042 15.872 4.06976 15.8822 4.06756 15.8842C4.0658 15.8859 4.06092 15.8904 4.04538 15.8969L4.43 16.82L4.81462 17.7431C5.27914 17.5495 5.63437 17.2126 5.86438 16.7768L4.98 16.31ZM4.43 16.82L4.02386 17.7338C4.05155 17.7461 4.06993 17.7581 4.09562 17.8068L4.98 17.34L5.86438 16.8732C5.63674 16.4419 5.28845 16.1072 4.83614 15.9062L4.43 16.82ZM4.98 17.34L4.10584 17.8256C4.12122 17.8533 4.18 17.9979 4.18 18.36H5.18H6.18C6.18 17.8421 6.10545 17.3067 5.85416 16.8544L4.98 17.34ZM5.18 18.36H4.18V20.05H5.18H6.18V18.36H5.18ZM5.18 20.05H4.18C4.18 20.4298 4.23943 20.8915 4.50765 21.2828C4.82245 21.7422 5.30705 21.94 5.79 21.94V20.94V19.94C5.81006 19.94 5.87598 19.944 5.96048 19.9851C6.04965 20.0285 6.1163 20.0923 6.15735 20.1522C6.19393 20.2055 6.19764 20.2369 6.19301 20.2166C6.18839 20.1964 6.18 20.1444 6.18 20.05H5.18ZM5.79 20.94V21.94H6.18V20.94V19.94H5.79V20.94ZM6.18 20.94V21.94C6.10977 21.94 6.01803 21.9286 5.91755 21.8895C5.81502 21.8496 5.72508 21.7893 5.65289 21.7171L6.36 21.01L7.06711 20.3029C6.81124 20.047 6.48625 19.94 6.18 19.94V20.94ZM6.36 21.01L5.65289 21.7171C5.59705 21.6613 5.53992 21.5843 5.49836 21.4856C5.45657 21.3863 5.44 21.2875 5.44 21.2H6.44H7.44C7.44 20.8531 7.30199 20.5378 7.06711 20.3029L6.36 21.01ZM6.44 21.2H5.44C5.44 21.0956 5.4618 20.9887 5.50619 20.8889C5.54954 20.7913 5.60552 20.7203 5.65289 20.6729L6.36 21.38L7.06711 22.0871C7.28113 21.8731 7.44 21.5676 7.44 21.2H6.44ZM6.36 21.38L5.60742 20.7215C5.67197 20.6477 5.76093 20.5764 5.87386 20.5262C5.98591 20.4764 6.09316 20.46 6.18 20.46V21.46V22.46C6.53024 22.46 6.86861 22.3173 7.11258 22.0385L6.36 21.38ZM6.18 21.46V20.46H5.67V21.46V22.46H6.18V21.46ZM15.0795 13.45L14.4097 14.1926L14.4169 14.199L15.0795 13.45ZM13.7995 16.64L13.7385 15.6419L12.1817 15.737L12.9178 17.112L13.7995 16.64ZM15.3895 19.61L16.2943 19.1842L16.2833 19.1608L16.2711 19.138L15.3895 19.61ZM15.4295 19.89L14.4897 19.5483L14.4897 19.5483L15.4295 19.89ZM14.7495 19.76L15.6585 19.3433L15.6475 19.3193L15.6352 19.2958L14.7495 19.76ZM13.1195 16.65L14.0052 16.1858L13.7244 15.65H13.1195V16.65ZM11.1395 16.65V15.65H10.1395V16.65H11.1395ZM11.1395 16.06H10.1395V17.06H11.1395V16.06ZM14.5995 15.76L13.9592 14.9917L13.9487 15.0007L14.5995 15.76ZM14.5995 13.88L13.9486 14.6393L13.9593 14.6482L14.5995 13.88ZM11.1395 13.58V12.58H10.1395V13.58H11.1395ZM10.8395 20V19C10.9068 19 11.1367 19.0209 11.3358 19.2328C11.5238 19.433 11.5295 19.6409 11.5295 19.67H10.5295H9.52945C9.52945 19.9191 9.58675 20.292 9.87811 20.6022C10.1805 20.9241 10.5654 21 10.8395 21V20ZM10.5295 19.67H11.5295V13.32H10.5295H9.52945V19.67H10.5295ZM10.5295 13.32H11.5295C11.5295 13.3641 11.5177 13.5809 11.3191 13.7796C11.1204 13.9783 10.9036 13.99 10.8595 13.99V12.99V11.99C10.5953 11.99 10.2135 12.0567 9.90485 12.3654C9.59617 12.6741 9.52945 13.0559 9.52945 13.32H10.5295ZM10.8595 12.99V13.99H13.5795V12.99V11.99H10.8595V12.99ZM13.5795 12.99V13.99C14.1 13.99 14.3203 14.112 14.4097 14.1926L15.0795 13.45L15.7492 12.7074C15.1586 12.1747 14.3789 11.99 13.5795 11.99V12.99ZM15.0795 13.45L14.4169 14.199C14.4872 14.2612 14.5995 14.4054 14.5995 14.82H15.5995H16.5995C16.5995 14.0212 16.365 13.2521 15.742 12.701L15.0795 13.45ZM15.5995 14.82H14.5995C14.5995 15.2179 14.4978 15.3668 14.4385 15.4268C14.3709 15.4951 14.1929 15.6141 13.7385 15.6419L13.7995 16.64L13.8605 17.6381C14.606 17.5926 15.328 17.3716 15.8605 16.8332C16.4011 16.2865 16.5995 15.5621 16.5995 14.82H15.5995ZM13.7995 16.64L12.9178 17.112L14.5078 20.082L15.3895 19.61L16.2711 19.138L14.6811 16.168L13.7995 16.64ZM15.3895 19.61L14.4846 20.0358C14.4819 20.0301 14.4607 19.9845 14.4495 19.9064C14.4377 19.824 14.4363 19.6951 14.4897 19.5483L15.4295 19.89L16.3692 20.2317C16.5289 19.7927 16.395 19.3982 16.2943 19.1842L15.3895 19.61ZM15.4295 19.89L14.4897 19.5483C14.5568 19.3636 14.6926 19.198 14.8775 19.0963C15.0393 19.0073 15.1783 19 15.2295 19V20V21C15.3872 21 15.6129 20.9744 15.8414 20.8487C16.0929 20.7104 16.2754 20.4898 16.3692 20.2317L15.4295 19.89ZM15.2295 20V19H15.1395V20V21H15.2295V20ZM15.1395 20V19C15.1899 19 15.3016 19.0118 15.4261 19.0883C15.5543 19.1673 15.6257 19.2717 15.6585 19.3433L14.7495 19.76L13.8404 20.1767C13.9465 20.4083 14.1196 20.6327 14.3779 20.7917C14.6323 20.9482 14.9023 21 15.1395 21V20ZM14.7495 19.76L15.6352 19.2958L14.0052 16.1858L13.1195 16.65L12.2337 17.1142L13.8637 20.2242L14.7495 19.76ZM13.1195 16.65V15.65H11.1395V16.65V17.65H13.1195V16.65ZM11.1395 16.65H10.1395V19.67H11.1395H12.1395V16.65H11.1395ZM11.1395 19.67H10.1395C10.1395 19.6482 10.1424 19.4452 10.3245 19.2448C10.5231 19.0264 10.7594 19 10.8395 19V20V21C11.1195 21 11.5058 20.9186 11.8044 20.5902C12.0865 20.2798 12.1395 19.9118 12.1395 19.67H11.1395ZM11.1395 16.06V17.06H13.5295V16.06V15.06H11.1395V16.06ZM13.5295 16.06V17.06C14.1206 17.06 14.7579 16.9412 15.2502 16.5193L14.5995 15.76L13.9487 15.0007C13.9629 14.9885 13.9534 15.0035 13.887 15.0221C13.818 15.0415 13.7036 15.06 13.5295 15.06V16.06ZM14.5995 15.76L15.2396 16.5282C15.783 16.0754 15.9595 15.4289 15.9595 14.82H14.9595H13.9595C13.9595 14.9428 13.9418 15.0012 13.9356 15.0174C13.9329 15.0244 13.9329 15.0221 13.9382 15.0146C13.9437 15.0067 13.9512 14.9985 13.9593 14.9918L14.5995 15.76ZM14.9595 14.82H15.9595C15.9595 14.2111 15.783 13.5646 15.2396 13.1118L14.5995 13.88L13.9593 14.6482C13.9512 14.6415 13.9437 14.6333 13.9382 14.6254C13.9329 14.6179 13.9329 14.6156 13.9356 14.6226C13.9418 14.6388 13.9595 14.6972 13.9595 14.82H14.9595ZM14.5995 13.88L15.2502 13.1207C14.7579 12.6988 14.1206 12.58 13.5295 12.58V13.58V14.58C13.7036 14.58 13.818 14.5985 13.887 14.6179C13.9534 14.6365 13.9629 14.6515 13.9487 14.6393L14.5995 13.88ZM13.5295 13.58V12.58H11.1395V13.58V14.58H13.5295V13.58ZM11.1395 13.58H10.1395V16.06H11.1395H12.1395V13.58H11.1395ZM21.4759 13.45L20.8061 14.1926L20.8134 14.199L21.4759 13.45ZM20.1959 16.64L20.1349 15.6419L18.5782 15.737L19.3143 17.112L20.1959 16.64ZM21.7859 19.61L22.6908 19.1842L22.6798 19.1608L22.6676 19.138L21.7859 19.61ZM21.8259 19.89L20.8861 19.5483L20.8861 19.5483L21.8259 19.89ZM21.1459 19.76L22.055 19.3433L22.044 19.3193L22.0317 19.2958L21.1459 19.76ZM19.5159 16.65L20.4017 16.1858L20.1208 15.65H19.5159V16.65ZM17.5359 16.65V15.65H16.5359V16.65H17.5359ZM17.5359 16.06H16.5359V17.06H17.5359V16.06ZM20.9959 15.76L20.3557 14.9917L20.3451 15.0007L20.9959 15.76ZM20.9959 13.88L20.3451 14.6393L20.3558 14.6482L20.9959 13.88ZM17.5359 13.58V12.58H16.5359V13.58H17.5359ZM17.2359 20V19C17.3033 19 17.5332 19.0209 17.7323 19.2328C17.9203 19.433 17.9259 19.6409 17.9259 19.67H16.9259H15.9259C15.9259 19.9191 15.9832 20.292 16.2746 20.6022C16.577 20.9241 16.9619 21 17.2359 21V20ZM16.9259 19.67H17.9259V13.32H16.9259H15.9259V19.67H16.9259ZM16.9259 13.32H17.9259C17.9259 13.3641 17.9142 13.5809 17.7155 13.7796C17.5169 13.9783 17.3001 13.99 17.2559 13.99V12.99V11.99C16.9918 11.99 16.61 12.0567 16.3013 12.3654C15.9927 12.6741 15.9259 13.0559 15.9259 13.32H16.9259ZM17.2559 12.99V13.99H19.9759V12.99V11.99H17.2559V12.99ZM19.9759 12.99V13.99C20.4965 13.99 20.7168 14.112 20.8062 14.1926L21.4759 13.45L22.1457 12.7074C21.5551 12.1747 20.7754 11.99 19.9759 11.99V12.99ZM21.4759 13.45L20.8134 14.199C20.8837 14.2612 20.9959 14.4054 20.9959 14.82H21.9959H22.9959C22.9959 14.0212 22.7615 13.2521 22.1385 12.701L21.4759 13.45ZM21.9959 14.82H20.9959C20.9959 15.2179 20.8943 15.3668 20.8349 15.4268C20.7674 15.4951 20.5894 15.6141 20.1349 15.6419L20.1959 16.64L20.2569 17.6381C21.0025 17.5926 21.7245 17.3716 22.2569 16.8332C22.7976 16.2865 22.9959 15.5621 22.9959 14.82H21.9959ZM20.1959 16.64L19.3143 17.112L20.9043 20.082L21.7859 19.61L22.6676 19.138L21.0775 16.168L20.1959 16.64ZM21.7859 19.61L20.8811 20.0358C20.8784 20.0301 20.8571 19.9845 20.846 19.9064C20.8342 19.824 20.8327 19.6951 20.8861 19.5483L21.8259 19.89L22.7657 20.2317C22.9254 19.7927 22.7915 19.3982 22.6908 19.1842L21.7859 19.61ZM21.8259 19.89L20.8861 19.5483C20.9533 19.3636 21.0891 19.198 21.274 19.0963C21.4358 19.0073 21.5748 19 21.6259 19V20V21C21.7837 21 22.0094 20.9744 22.2379 20.8487C22.4894 20.7104 22.6719 20.4898 22.7657 20.2317L21.8259 19.89ZM21.6259 20V19H21.5359V20V21H21.6259V20ZM21.5359 20V19C21.5864 19 21.6981 19.0118 21.8225 19.0883C21.9508 19.1673 22.0222 19.2717 22.055 19.3433L21.1459 19.76L20.2369 20.1767C20.343 20.4083 20.5161 20.6327 20.7743 20.7917C21.0288 20.9482 21.2988 21 21.5359 21V20ZM21.1459 19.76L22.0317 19.2958L20.4017 16.1858L19.5159 16.65L18.6302 17.1142L20.2602 20.2242L21.1459 19.76ZM19.5159 16.65V15.65H17.5359V16.65V17.65H19.5159V16.65ZM17.5359 16.65H16.5359V19.67H17.5359H18.5359V16.65H17.5359ZM17.5359 19.67H16.5359C16.5359 19.6482 16.5389 19.4452 16.721 19.2448C16.9196 19.0264 17.1559 19 17.2359 19V20V21C17.5159 21 17.9023 20.9186 18.2009 20.5902C18.483 20.2798 18.5359 19.9118 18.5359 19.67H17.5359ZM17.5359 16.06V17.06H19.9259V16.06V15.06H17.5359V16.06ZM19.9259 16.06V17.06C20.5171 17.06 21.1544 16.9412 21.6467 16.5193L20.9959 15.76L20.3451 15.0007C20.3594 14.9885 20.3499 15.0035 20.2835 15.0221C20.2145 15.0415 20.1001 15.06 19.9259 15.06V16.06ZM20.9959 15.76L21.6361 16.5282C22.1795 16.0754 22.3559 15.4289 22.3559 14.82H21.3559H20.3559C20.3559 14.9428 20.3383 15.0012 20.3321 15.0174C20.3294 15.0244 20.3294 15.0221 20.3347 15.0146C20.3402 15.0067 20.3477 14.9985 20.3558 14.9918L20.9959 15.76ZM21.3559 14.82H22.3559C22.3559 14.2111 22.1795 13.5646 21.6361 13.1118L20.9959 13.88L20.3558 14.6482C20.3477 14.6415 20.3402 14.6333 20.3347 14.6254C20.3294 14.6179 20.3294 14.6156 20.3321 14.6226C20.3383 14.6388 20.3559 14.6972 20.3559 14.82H21.3559ZM20.9959 13.88L21.6467 13.1207C21.1544 12.6988 20.5171 12.58 19.9259 12.58V13.58V14.58C20.1001 14.58 20.2145 14.5985 20.2835 14.6179C20.3499 14.6365 20.3594 14.6515 20.3451 14.6393L20.9959 13.88ZM19.9259 13.58V12.58H17.5359V13.58V14.58H19.9259V13.58ZM17.5359 13.58H16.5359V16.06H17.5359H18.5359V13.58H17.5359ZM25.8152 21.01L25.1567 20.2574L25.1316 20.2793L25.108 20.3029L25.8152 21.01ZM27.1852 17.34L26.311 16.8544L26.3058 16.8637L26.3008 16.8732L27.1852 17.34ZM27.7452 16.82L28.1513 17.7338L30.274 16.7904L28.1298 15.8969L27.7452 16.82ZM27.1852 16.31L26.3008 16.7768L26.3058 16.7863L26.311 16.7956L27.1852 16.31ZM25.8152 12.64L25.1081 13.3471L25.1316 13.3707L25.1567 13.3926L25.8152 12.64ZM25.8152 12.27L26.4737 13.0226L26.4987 13.0007L26.5223 12.9771L25.8152 12.27ZM27.2852 12.55L26.4958 13.1639L26.5053 13.1761L26.5151 13.188L27.2852 12.55ZM27.7252 16.13L26.7984 16.5057L26.8046 16.521L26.8113 16.5361L27.7252 16.13ZM28.2852 16.55L28.1368 17.5389L28.1656 17.5433L28.1946 17.5459L28.2852 16.55ZM28.4552 16.64L27.6552 17.24L27.6778 17.2701L27.7026 17.2985L28.4552 16.64ZM28.4552 17L27.7026 16.3415L27.6778 16.3699L27.6552 16.4L28.4552 17ZM28.2852 17.1L28.4335 18.0889L28.4488 18.0866L28.464 18.0839L28.2852 17.1ZM27.7252 17.52L26.8113 17.1139L26.8066 17.1246L26.8021 17.1354L27.7252 17.52ZM27.2852 21.1L26.5151 20.462L26.5053 20.4739L26.4958 20.4861L27.2852 21.1ZM25.9952 21.46V20.46C26.0995 20.46 26.2064 20.4818 26.3063 20.5262C26.4038 20.5695 26.4749 20.6255 26.5223 20.6729L25.8152 21.38L25.108 22.0871C25.3221 22.3011 25.6276 22.46 25.9952 22.46V21.46ZM25.8152 21.38L26.5223 20.6729C26.5696 20.7203 26.6256 20.7913 26.669 20.8889C26.7134 20.9887 26.7352 21.0956 26.7352 21.2H25.7352H24.7352C24.7352 21.5676 24.894 21.8731 25.108 22.0871L25.8152 21.38ZM25.7352 21.2H26.7352C26.7352 21.2875 26.7186 21.3863 26.6768 21.4856C26.6352 21.5843 26.5781 21.6613 26.5223 21.7171L25.8152 21.01L25.108 20.3029C24.8732 20.5378 24.7352 20.8531 24.7352 21.2H25.7352ZM25.8152 21.01L26.4737 21.7626C26.4216 21.8081 26.3514 21.855 26.2626 21.8895C26.1729 21.9244 26.0813 21.94 25.9952 21.94V20.94V19.94C25.6702 19.94 25.3798 20.0622 25.1567 20.2574L25.8152 21.01ZM25.9952 20.94V21.94H26.3852V20.94V19.94H25.9952V20.94ZM26.3852 20.94V21.94C26.8681 21.94 27.3527 21.7422 27.6675 21.2828C27.9357 20.8915 27.9952 20.4298 27.9952 20.05H26.9952H25.9952C25.9952 20.1444 25.9868 20.1964 25.9822 20.2166C25.9775 20.2369 25.9812 20.2055 26.0178 20.1522C26.0589 20.0923 26.1255 20.0285 26.2147 19.9851C26.2992 19.944 26.3651 19.94 26.3852 19.94V20.94ZM26.9952 20.05H27.9952V18.36H26.9952H25.9952V20.05H26.9952ZM26.9952 18.36H27.9952C27.9952 17.9926 28.0519 17.8401 28.0695 17.8068L27.1852 17.34L26.3008 16.8732C26.065 17.3199 25.9952 17.8474 25.9952 18.36H26.9952ZM27.1852 17.34L28.0593 17.8256C28.0924 17.7662 28.1191 17.7481 28.1513 17.7338L27.7452 16.82L27.339 15.9062C26.8913 16.1052 26.5446 16.4338 26.311 16.8544L27.1852 17.34ZM27.7452 16.82L28.1298 15.8969C28.1097 15.8886 28.0899 15.8794 28.0593 15.8244L27.1852 16.31L26.311 16.7956C26.5471 17.2206 26.9006 17.5514 27.3605 17.7431L27.7452 16.82ZM27.1852 16.31L28.0695 15.8432C28.0519 15.8099 27.9952 15.6574 27.9952 15.29H26.9952H25.9952C25.9952 15.8026 26.065 16.3301 26.3008 16.7768L27.1852 16.31ZM26.9952 15.29H27.9952V13.6H26.9952H25.9952V15.29H26.9952ZM26.9952 13.6H27.9952C27.9952 13.2202 27.9357 12.7585 27.6675 12.3672C27.3527 11.9078 26.8681 11.71 26.3852 11.71V12.71V13.71C26.3651 13.71 26.2992 13.706 26.2147 13.6649C26.1255 13.6215 26.0589 13.5577 26.0178 13.4978C25.9812 13.4445 25.9775 13.4131 25.9822 13.4334C25.9868 13.4536 25.9952 13.5056 25.9952 13.6H26.9952ZM26.3852 12.71V11.71H25.9952V12.71V13.71H26.3852V12.71ZM25.9952 12.71V11.71C26.0813 11.71 26.1729 11.7256 26.2626 11.7605C26.3514 11.795 26.4216 11.8419 26.4737 11.8874L25.8152 12.64L25.1567 13.3926C25.3798 13.5878 25.6702 13.71 25.9952 13.71V12.71ZM25.8152 12.64L26.5223 11.9329C26.5781 11.9887 26.6352 12.0657 26.6768 12.1644C26.7186 12.2637 26.7352 12.3625 26.7352 12.45H25.7352H24.7352C24.7352 12.7969 24.8732 13.1122 25.1081 13.3471L25.8152 12.64ZM25.7352 12.45H26.7352C26.7352 12.5368 26.7188 12.6441 26.669 12.7561C26.6188 12.8691 26.5474 12.958 26.4737 13.0226L25.8152 12.27L25.1567 11.5174C24.8778 11.7614 24.7352 12.0998 24.7352 12.45H25.7352ZM25.8152 12.27L26.5223 12.9771C26.4749 13.0245 26.4038 13.0805 26.3063 13.1238C26.2064 13.1682 26.0995 13.19 25.9952 13.19V12.19V11.19C25.6276 11.19 25.3221 11.3489 25.1081 11.5629L25.8152 12.27ZM25.9952 12.19V13.19H26.5052V12.19V11.19H25.9952V12.19ZM26.5052 12.19V13.19C26.5285 13.19 26.5404 13.1921 26.5432 13.1927C26.5455 13.1931 26.5405 13.1923 26.5311 13.188C26.5214 13.1835 26.5119 13.1775 26.5039 13.1711C26.4961 13.1648 26.4937 13.1613 26.4958 13.1639L27.2852 12.55L28.0745 11.9361C27.6784 11.4268 27.113 11.19 26.5052 11.19V12.19ZM27.2852 12.55L26.5151 13.188C26.5035 13.174 26.5752 13.2493 26.5752 13.57H27.5752H28.5752C28.5752 12.9974 28.4535 12.3927 28.0552 11.912L27.2852 12.55ZM27.5752 13.57H26.5752V15.27H27.5752H28.5752V13.57H27.5752ZM27.5752 15.27H26.5752C26.5752 15.697 26.6404 16.1159 26.7984 16.5057L27.7252 16.13L28.6519 15.7543C28.6099 15.6507 28.5752 15.4963 28.5752 15.27H27.5752ZM27.7252 16.13L26.8113 16.5361C27.0613 17.0984 27.5431 17.4499 28.1368 17.5389L28.2852 16.55L28.4335 15.5611C28.4384 15.5618 28.4866 15.5711 28.5452 15.615C28.6048 15.6597 28.6319 15.7079 28.639 15.7239L27.7252 16.13ZM28.2852 16.55L28.1946 17.5459C28.1187 17.539 28.0196 17.5168 27.9148 17.4613C27.8076 17.4046 27.72 17.3264 27.6552 17.24L28.4552 16.64L29.2552 16.04C29.0265 15.7351 28.698 15.5834 28.3757 15.5541L28.2852 16.55ZM28.4552 16.64L27.7026 17.2985C27.657 17.2465 27.6102 17.1762 27.5757 17.0874C27.5408 16.9978 27.5252 16.9062 27.5252 16.82H28.5252H29.5252C29.5252 16.495 29.403 16.2046 29.2077 15.9815L28.4552 16.64ZM28.5252 16.82H27.5252C27.5252 16.7338 27.5408 16.6422 27.5757 16.5526C27.6102 16.4638 27.657 16.3935 27.7026 16.3415L28.4552 17L29.2077 17.6585C29.403 17.4354 29.5252 17.145 29.5252 16.82H28.5252ZM28.4552 17L27.6552 16.4C27.7134 16.3224 27.7883 16.2544 27.8756 16.2031C27.9613 16.1527 28.0426 16.1277 28.1063 16.1161L28.2852 17.1L28.464 18.0839C28.7538 18.0312 29.0457 17.8793 29.2552 17.6L28.4552 17ZM28.2852 17.1L28.1368 16.1111C27.5431 16.2001 27.0613 16.5516 26.8113 17.1139L27.7252 17.52L28.639 17.9261C28.6319 17.9421 28.6048 17.9903 28.5452 18.035C28.4866 18.0789 28.4384 18.0882 28.4335 18.0889L28.2852 17.1ZM27.7252 17.52L26.8021 17.1354C26.6392 17.5264 26.5752 17.9503 26.5752 18.38H27.5752H28.5752C28.5752 18.143 28.6111 17.9936 28.6482 17.9046L27.7252 17.52ZM27.5752 18.38H26.5752V20.08H27.5752H28.5752V18.38H27.5752ZM27.5752 20.08H26.5752C26.5752 20.4007 26.5035 20.476 26.5151 20.462L27.2852 21.1L28.0552 21.738C28.4535 21.2573 28.5752 20.6526 28.5752 20.08H27.5752ZM27.2852 21.1L26.4958 20.4861C26.4937 20.4887 26.4961 20.4852 26.5039 20.4789C26.5119 20.4725 26.5214 20.4665 26.5311 20.462C26.5405 20.4577 26.5455 20.4569 26.5432 20.4573C26.5404 20.4579 26.5285 20.46 26.5052 20.46V21.46V22.46C27.113 22.46 27.6784 22.2232 28.0745 21.7139L27.2852 21.1ZM26.5052 21.46V20.46H25.9952V21.46V22.46H26.5052V21.46Z" fill="black" mask="url(#path-2-outside-1_0_1)"/>
</svg>
