<svg width="512" height="512" viewBox="0 0 512 512" fill="none" xmlns="http://www.w3.org/2000/svg">
<rect width="512" height="512" fill="#1E1E1E"/>
<rect width="512" height="512" rx="256" fill="#262626"/>
<mask id="path-2-outside-1_0_1" maskUnits="userSpaceOnUse" x="95" y="195" width="321" height="121" fill="black">
<rect fill="white" x="95" y="195" width="321" height="121"/>
<path d="M122.176 314.688C117.909 314.688 114.539 313.152 112.064 310.08C109.675 307.093 108.48 302.741 108.48 297.024V275.264C108.48 270.997 107.84 267.328 106.56 264.256C105.28 261.184 102.891 259.392 99.392 258.88C98.5387 258.709 97.8133 258.283 97.216 257.6C96.6187 256.917 96.32 256.149 96.32 255.296C96.32 254.443 96.6187 253.675 97.216 252.992C97.8133 252.309 98.5387 251.925 99.392 251.84C102.891 251.328 105.28 249.536 106.56 246.464C107.84 243.307 108.48 239.637 108.48 235.456V213.696C108.48 207.979 109.675 203.627 112.064 200.64C114.539 197.568 117.909 196.032 122.176 196.032H128.704C129.643 196.032 130.411 196.373 131.008 197.056C131.691 197.653 132.032 198.421 132.032 199.36C132.032 200.299 131.691 201.109 131.008 201.792C130.411 202.389 129.643 202.688 128.704 202.688H123.712C118.507 202.688 115.904 206.485 115.904 214.08V235.712C115.904 241.344 115.051 245.696 113.344 248.768C111.723 251.84 109.376 254.016 106.304 255.296C109.376 256.661 111.723 258.88 113.344 261.952C115.051 265.024 115.904 269.376 115.904 275.008V296.64C115.904 304.235 118.507 308.032 123.712 308.032H128.704C129.643 308.032 130.411 308.331 131.008 308.928C131.691 309.611 132.032 310.421 132.032 311.36C132.032 312.213 131.691 312.981 131.008 313.664C130.411 314.347 129.643 314.688 128.704 314.688H122.176ZM188.345 296C185.7 296 184.377 294.592 184.377 291.776V210.496C184.377 207.68 185.785 206.272 188.601 206.272H223.417C231.865 206.272 238.265 208.235 242.617 212.16C247.054 216.085 249.273 221.931 249.273 229.696C249.273 244.288 241.593 252.053 226.233 252.992L246.585 291.008C247.268 292.459 247.438 293.653 247.097 294.592C246.756 295.531 245.902 296 244.537 296H243.385C240.996 296 239.332 294.976 238.393 292.928L217.529 253.12H192.185V291.776C192.185 294.592 190.905 296 188.345 296ZM192.185 245.568H222.777C228.921 245.568 233.486 244.288 236.473 241.728C239.545 239.168 241.081 235.157 241.081 229.696C241.081 224.235 239.545 220.224 236.473 217.664C233.486 215.104 228.921 213.824 222.777 213.824H192.185V245.568ZM270.22 296C267.575 296 266.252 294.592 266.252 291.776V210.496C266.252 207.68 267.66 206.272 270.476 206.272H305.292C313.74 206.272 320.14 208.235 324.492 212.16C328.929 216.085 331.148 221.931 331.148 229.696C331.148 244.288 323.468 252.053 308.108 252.992L328.46 291.008C329.143 292.459 329.313 293.653 328.972 294.592C328.631 295.531 327.777 296 326.412 296H325.26C322.871 296 321.207 294.976 320.268 292.928L299.404 253.12H274.06V291.776C274.06 294.592 272.78 296 270.22 296ZM274.06 245.568H304.652C310.796 245.568 315.361 244.288 318.348 241.728C321.42 239.168 322.956 235.157 322.956 229.696C322.956 224.235 321.42 220.224 318.348 217.664C315.361 215.104 310.796 213.824 304.652 213.824H274.06V245.568ZM382.338 314.688C381.485 314.688 380.717 314.347 380.034 313.664C379.351 312.981 379.01 312.213 379.01 311.36C379.01 310.421 379.351 309.611 380.034 308.928C380.717 308.331 381.485 308.032 382.338 308.032H387.33C392.535 308.032 395.138 304.235 395.138 296.64V275.008C395.138 269.376 395.949 265.024 397.57 261.952C399.277 258.88 401.666 256.661 404.738 255.296C401.666 254.016 399.277 251.84 397.57 248.768C395.949 245.696 395.138 241.344 395.138 235.712V214.08C395.138 206.485 392.535 202.688 387.33 202.688H382.338C381.485 202.688 380.717 202.389 380.034 201.792C379.351 201.109 379.01 200.299 379.01 199.36C379.01 198.421 379.351 197.653 380.034 197.056C380.717 196.373 381.485 196.032 382.338 196.032H388.866C393.133 196.032 396.461 197.568 398.85 200.64C401.325 203.627 402.562 207.979 402.562 213.696V235.456C402.562 239.637 403.202 243.307 404.482 246.464C405.847 249.536 408.237 251.328 411.65 251.84C412.589 251.925 413.314 252.309 413.826 252.992C414.423 253.675 414.722 254.443 414.722 255.296C414.722 256.149 414.423 256.917 413.826 257.6C413.314 258.283 412.589 258.709 411.65 258.88C408.237 259.392 405.847 261.184 404.482 264.256C403.202 267.328 402.562 270.997 402.562 275.264V297.024C402.562 302.741 401.325 307.093 398.85 310.08C396.461 313.152 393.133 314.688 388.866 314.688H382.338Z"/>
</mask>
<path d="M122.176 314.688C117.909 314.688 114.539 313.152 112.064 310.08C109.675 307.093 108.48 302.741 108.48 297.024V275.264C108.48 270.997 107.84 267.328 106.56 264.256C105.28 261.184 102.891 259.392 99.392 258.88C98.5387 258.709 97.8133 258.283 97.216 257.6C96.6187 256.917 96.32 256.149 96.32 255.296C96.32 254.443 96.6187 253.675 97.216 252.992C97.8133 252.309 98.5387 251.925 99.392 251.84C102.891 251.328 105.28 249.536 106.56 246.464C107.84 243.307 108.48 239.637 108.48 235.456V213.696C108.48 207.979 109.675 203.627 112.064 200.64C114.539 197.568 117.909 196.032 122.176 196.032H128.704C129.643 196.032 130.411 196.373 131.008 197.056C131.691 197.653 132.032 198.421 132.032 199.36C132.032 200.299 131.691 201.109 131.008 201.792C130.411 202.389 129.643 202.688 128.704 202.688H123.712C118.507 202.688 115.904 206.485 115.904 214.08V235.712C115.904 241.344 115.051 245.696 113.344 248.768C111.723 251.84 109.376 254.016 106.304 255.296C109.376 256.661 111.723 258.88 113.344 261.952C115.051 265.024 115.904 269.376 115.904 275.008V296.64C115.904 304.235 118.507 308.032 123.712 308.032H128.704C129.643 308.032 130.411 308.331 131.008 308.928C131.691 309.611 132.032 310.421 132.032 311.36C132.032 312.213 131.691 312.981 131.008 313.664C130.411 314.347 129.643 314.688 128.704 314.688H122.176ZM188.345 296C185.7 296 184.377 294.592 184.377 291.776V210.496C184.377 207.68 185.785 206.272 188.601 206.272H223.417C231.865 206.272 238.265 208.235 242.617 212.16C247.054 216.085 249.273 221.931 249.273 229.696C249.273 244.288 241.593 252.053 226.233 252.992L246.585 291.008C247.268 292.459 247.438 293.653 247.097 294.592C246.756 295.531 245.902 296 244.537 296H243.385C240.996 296 239.332 294.976 238.393 292.928L217.529 253.12H192.185V291.776C192.185 294.592 190.905 296 188.345 296ZM192.185 245.568H222.777C228.921 245.568 233.486 244.288 236.473 241.728C239.545 239.168 241.081 235.157 241.081 229.696C241.081 224.235 239.545 220.224 236.473 217.664C233.486 215.104 228.921 213.824 222.777 213.824H192.185V245.568ZM270.22 296C267.575 296 266.252 294.592 266.252 291.776V210.496C266.252 207.68 267.66 206.272 270.476 206.272H305.292C313.74 206.272 320.14 208.235 324.492 212.16C328.929 216.085 331.148 221.931 331.148 229.696C331.148 244.288 323.468 252.053 308.108 252.992L328.46 291.008C329.143 292.459 329.313 293.653 328.972 294.592C328.631 295.531 327.777 296 326.412 296H325.26C322.871 296 321.207 294.976 320.268 292.928L299.404 253.12H274.06V291.776C274.06 294.592 272.78 296 270.22 296ZM274.06 245.568H304.652C310.796 245.568 315.361 244.288 318.348 241.728C321.42 239.168 322.956 235.157 322.956 229.696C322.956 224.235 321.42 220.224 318.348 217.664C315.361 215.104 310.796 213.824 304.652 213.824H274.06V245.568ZM382.338 314.688C381.485 314.688 380.717 314.347 380.034 313.664C379.351 312.981 379.01 312.213 379.01 311.36C379.01 310.421 379.351 309.611 380.034 308.928C380.717 308.331 381.485 308.032 382.338 308.032H387.33C392.535 308.032 395.138 304.235 395.138 296.64V275.008C395.138 269.376 395.949 265.024 397.57 261.952C399.277 258.88 401.666 256.661 404.738 255.296C401.666 254.016 399.277 251.84 397.57 248.768C395.949 245.696 395.138 241.344 395.138 235.712V214.08C395.138 206.485 392.535 202.688 387.33 202.688H382.338C381.485 202.688 380.717 202.389 380.034 201.792C379.351 201.109 379.01 200.299 379.01 199.36C379.01 198.421 379.351 197.653 380.034 197.056C380.717 196.373 381.485 196.032 382.338 196.032H388.866C393.133 196.032 396.461 197.568 398.85 200.64C401.325 203.627 402.562 207.979 402.562 213.696V235.456C402.562 239.637 403.202 243.307 404.482 246.464C405.847 249.536 408.237 251.328 411.65 251.84C412.589 251.925 413.314 252.309 413.826 252.992C414.423 253.675 414.722 254.443 414.722 255.296C414.722 256.149 414.423 256.917 413.826 257.6C413.314 258.283 412.589 258.709 411.65 258.88C408.237 259.392 405.847 261.184 404.482 264.256C403.202 267.328 402.562 270.997 402.562 275.264V297.024C402.562 302.741 401.325 307.093 398.85 310.08C396.461 313.152 393.133 314.688 388.866 314.688H382.338Z" fill="white"/>
<path d="M112.064 310.08L111.283 310.705L111.285 310.707L112.064 310.08ZM106.56 264.256L105.637 264.641L106.56 264.256ZM99.392 258.88L99.1959 259.861L99.2214 259.866L99.2472 259.869L99.392 258.88ZM97.216 257.6L96.4634 258.259L96.4634 258.259L97.216 257.6ZM97.216 252.992L96.4634 252.333L96.4634 252.333L97.216 252.992ZM99.392 251.84L99.4915 252.835L99.5142 252.833L99.5368 252.829L99.392 251.84ZM106.56 246.464L107.483 246.849L107.487 246.84L106.56 246.464ZM112.064 200.64L111.285 200.013L111.283 200.015L112.064 200.64ZM131.008 197.056L130.255 197.714L130.299 197.765L130.349 197.809L131.008 197.056ZM131.008 201.792L130.301 201.085L130.301 201.085L131.008 201.792ZM113.344 248.768L112.47 248.282L112.465 248.292L112.46 248.301L113.344 248.768ZM106.304 255.296L105.919 254.373L103.775 255.266L105.898 256.21L106.304 255.296ZM113.344 261.952L112.46 262.419L112.465 262.428L112.47 262.438L113.344 261.952ZM131.008 308.928L131.715 308.221L131.715 308.221L131.008 308.928ZM131.008 313.664L130.301 312.957L130.277 312.98L130.255 313.005L131.008 313.664ZM122.176 314.688V313.688C118.184 313.688 115.111 312.268 112.843 309.453L112.064 310.08L111.285 310.707C113.967 314.036 117.635 315.688 122.176 315.688V314.688ZM112.064 310.08L112.845 309.455C110.653 306.715 109.48 302.622 109.48 297.024H108.48H107.48C107.48 302.861 108.697 307.472 111.283 310.705L112.064 310.08ZM108.48 297.024H109.48V275.264H108.48H107.48V297.024H108.48ZM108.48 275.264H109.48C109.48 270.901 108.826 267.094 107.483 263.871L106.56 264.256L105.637 264.641C106.854 267.562 107.48 271.094 107.48 275.264H108.48ZM106.56 264.256L107.483 263.871C106.058 260.451 103.357 258.45 99.5368 257.891L99.392 258.88L99.2472 259.869C102.425 260.334 104.502 261.917 105.637 264.641L106.56 264.256ZM99.392 258.88L99.5881 257.899C98.9603 257.774 98.4275 257.466 97.9686 256.941L97.216 257.6L96.4634 258.259C97.1991 259.099 98.117 259.645 99.1959 259.861L99.392 258.88ZM97.216 257.6L97.9686 256.941C97.5198 256.429 97.32 255.891 97.32 255.296H96.32H95.32C95.32 256.408 95.7175 257.406 96.4634 258.259L97.216 257.6ZM96.32 255.296H97.32C97.32 254.701 97.5198 254.163 97.9686 253.651L97.216 252.992L96.4634 252.333C95.7175 253.186 95.32 254.184 95.32 255.296H96.32ZM97.216 252.992L97.9686 253.651C98.4094 253.147 98.9063 252.894 99.4915 252.835L99.392 251.84L99.2925 250.845C98.1711 250.957 97.2173 251.472 96.4634 252.333L97.216 252.992ZM99.392 251.84L99.5368 252.829C103.357 252.27 106.058 250.269 107.483 246.849L106.56 246.464L105.637 246.079C104.502 248.803 102.425 250.386 99.2472 250.851L99.392 251.84ZM106.56 246.464L107.487 246.84C108.825 243.539 109.48 239.738 109.48 235.456H108.48H107.48C107.48 239.537 106.855 243.074 105.633 246.088L106.56 246.464ZM108.48 235.456H109.48V213.696H108.48H107.48V235.456H108.48ZM108.48 213.696H109.48C109.48 208.098 110.653 204.005 112.845 201.265L112.064 200.64L111.283 200.015C108.697 203.248 107.48 207.859 107.48 213.696H108.48ZM112.064 200.64L112.843 201.267C115.111 198.452 118.184 197.032 122.176 197.032V196.032V195.032C117.635 195.032 113.967 196.684 111.285 200.013L112.064 200.64ZM122.176 196.032V197.032H128.704V196.032V195.032H122.176V196.032ZM128.704 196.032V197.032C129.366 197.032 129.855 197.257 130.255 197.714L131.008 197.056L131.761 196.397C130.966 195.489 129.92 195.032 128.704 195.032V196.032ZM131.008 197.056L130.349 197.809C130.807 198.209 131.032 198.698 131.032 199.36H132.032H133.032C133.032 198.144 132.575 197.098 131.667 196.303L131.008 197.056ZM132.032 199.36H131.032C131.032 200.025 130.802 200.584 130.301 201.085L131.008 201.792L131.715 202.499C132.579 201.635 133.032 200.572 133.032 199.36H132.032ZM131.008 201.792L130.301 201.085C129.913 201.473 129.41 201.688 128.704 201.688V202.688V203.688C129.876 203.688 130.909 203.306 131.715 202.499L131.008 201.792ZM128.704 202.688V201.688H123.712V202.688V203.688H128.704V202.688ZM123.712 202.688V201.688C120.83 201.688 118.546 202.761 117.031 204.971C115.563 207.112 114.904 210.2 114.904 214.08H115.904H116.904C116.904 210.366 117.546 207.757 118.681 206.101C119.769 204.514 121.389 203.688 123.712 203.688V202.688ZM115.904 214.08H114.904V235.712H115.904H116.904V214.08H115.904ZM115.904 235.712H114.904C114.904 241.266 114.059 245.423 112.47 248.282L113.344 248.768L114.218 249.254C116.043 245.969 116.904 241.422 116.904 235.712H115.904ZM113.344 248.768L112.46 248.301C110.942 251.177 108.767 253.186 105.919 254.373L106.304 255.296L106.689 256.219C109.985 254.846 112.504 252.503 114.228 249.235L113.344 248.768ZM106.304 255.296L105.898 256.21C108.758 257.481 110.939 259.538 112.46 262.419L113.344 261.952L114.228 261.485C112.506 258.222 109.994 255.842 106.71 254.382L106.304 255.296ZM113.344 261.952L112.47 262.438C114.059 265.297 114.904 269.454 114.904 275.008H115.904H116.904C116.904 269.298 116.043 264.751 114.218 261.466L113.344 261.952ZM115.904 275.008H114.904V296.64H115.904H116.904V275.008H115.904ZM115.904 296.64H114.904C114.904 300.52 115.563 303.608 117.031 305.749C118.546 307.959 120.83 309.032 123.712 309.032V308.032V307.032C121.389 307.032 119.769 306.206 118.681 304.619C117.546 302.963 116.904 300.354 116.904 296.64H115.904ZM123.712 308.032V309.032H128.704V308.032V307.032H123.712V308.032ZM128.704 308.032V309.032C129.41 309.032 129.913 309.247 130.301 309.635L131.008 308.928L131.715 308.221C130.909 307.414 129.876 307.032 128.704 307.032V308.032ZM131.008 308.928L130.301 309.635C130.802 310.136 131.032 310.695 131.032 311.36H132.032H133.032C133.032 310.148 132.579 309.085 131.715 308.221L131.008 308.928ZM132.032 311.36H131.032C131.032 311.912 130.823 312.435 130.301 312.957L131.008 313.664L131.715 314.371C132.558 313.528 133.032 312.514 133.032 311.36H132.032ZM131.008 313.664L130.255 313.005C129.855 313.463 129.366 313.688 128.704 313.688V314.688V315.688C129.92 315.688 130.966 315.231 131.761 314.323L131.008 313.664ZM128.704 314.688V313.688H122.176V314.688V315.688H128.704V314.688ZM242.617 212.16L241.947 212.903L241.954 212.909L242.617 212.16ZM226.233 252.992L226.172 251.994L224.615 252.089L225.351 253.464L226.233 252.992ZM246.585 291.008L247.49 290.582L247.479 290.559L247.467 290.536L246.585 291.008ZM247.097 294.592L246.157 294.25L246.157 294.25L247.097 294.592ZM238.393 292.928L239.302 292.511L239.291 292.487L239.279 292.464L238.393 292.928ZM217.529 253.12L218.415 252.656L218.134 252.12H217.529V253.12ZM192.185 253.12V252.12H191.185V253.12H192.185ZM192.185 245.568H191.185V246.568H192.185V245.568ZM236.473 241.728L235.833 240.96L235.822 240.969L236.473 241.728ZM236.473 217.664L235.822 218.423L235.833 218.432L236.473 217.664ZM192.185 213.824V212.824H191.185V213.824H192.185ZM188.345 296V295C187.193 295 186.508 294.696 186.098 294.259C185.676 293.81 185.377 293.045 185.377 291.776H184.377H183.377C183.377 293.323 183.739 294.67 184.64 295.629C185.552 296.6 186.852 297 188.345 297V296ZM184.377 291.776H185.377V210.496H184.377H183.377V291.776H184.377ZM184.377 210.496H185.377C185.377 209.242 185.69 208.485 186.14 208.035C186.59 207.585 187.347 207.272 188.601 207.272V206.272V205.272C187.039 205.272 185.684 205.663 184.726 206.621C183.768 207.579 183.377 208.934 183.377 210.496H184.377ZM188.601 206.272V207.272H223.417V206.272V205.272H188.601V206.272ZM223.417 206.272V207.272C231.726 207.272 237.846 209.203 241.947 212.903L242.617 212.16L243.287 211.417C238.684 207.266 232.004 205.272 223.417 205.272V206.272ZM242.617 212.16L241.954 212.909C246.115 216.59 248.273 222.123 248.273 229.696H249.273H250.273C250.273 221.739 247.993 215.581 243.28 211.411L242.617 212.16ZM249.273 229.696H248.273C248.273 236.82 246.401 242.121 242.802 245.761C239.194 249.408 233.706 251.533 226.172 251.994L226.233 252.992L226.294 253.99C234.12 253.512 240.152 251.285 244.224 247.167C248.305 243.041 250.273 237.164 250.273 229.696H249.273ZM226.233 252.992L225.351 253.464L245.703 291.48L246.585 291.008L247.467 290.536L227.115 252.52L226.233 252.992ZM246.585 291.008L245.68 291.434C246.315 292.784 246.366 293.677 246.157 294.25L247.097 294.592L248.037 294.934C248.511 293.629 248.22 292.134 247.49 290.582L246.585 291.008ZM247.097 294.592L246.157 294.25C246.067 294.498 245.928 294.657 245.719 294.772C245.488 294.899 245.115 295 244.537 295V296V297C245.324 297 246.061 296.866 246.683 296.524C247.328 296.17 247.786 295.624 248.037 294.934L247.097 294.592ZM244.537 296V295H243.385V296V297H244.537V296ZM243.385 296V295C242.334 295 241.512 294.776 240.869 294.38C240.23 293.987 239.702 293.384 239.302 292.511L238.393 292.928L237.484 293.345C238.023 294.52 238.796 295.453 239.821 296.084C240.842 296.712 242.047 297 243.385 297V296ZM238.393 292.928L239.279 292.464L218.415 252.656L217.529 253.12L216.643 253.584L237.507 293.392L238.393 292.928ZM217.529 253.12V252.12H192.185V253.12V254.12H217.529V253.12ZM192.185 253.12H191.185V291.776H192.185H193.185V253.12H192.185ZM192.185 291.776H191.185C191.185 293.052 190.893 293.823 190.485 294.271C190.094 294.702 189.445 295 188.345 295V296V297C189.805 297 191.076 296.594 191.965 295.617C192.837 294.657 193.185 293.316 193.185 291.776H192.185ZM192.185 245.568V246.568H222.777V245.568V244.568H192.185V245.568ZM222.777 245.568V246.568C229.032 246.568 233.878 245.269 237.124 242.487L236.473 241.728L235.822 240.969C233.095 243.307 228.81 244.568 222.777 244.568V245.568ZM236.473 241.728L237.113 242.496C240.489 239.683 242.081 235.34 242.081 229.696H241.081H240.081C240.081 234.975 238.601 238.653 235.833 240.96L236.473 241.728ZM241.081 229.696H242.081C242.081 224.052 240.489 219.709 237.113 216.896L236.473 217.664L235.833 218.432C238.601 220.739 240.081 224.417 240.081 229.696H241.081ZM236.473 217.664L237.124 216.905C233.878 214.123 229.032 212.824 222.777 212.824V213.824V214.824C228.81 214.824 233.095 216.085 235.822 218.423L236.473 217.664ZM222.777 213.824V212.824H192.185V213.824V214.824H222.777V213.824ZM192.185 213.824H191.185V245.568H192.185H193.185V213.824H192.185ZM324.492 212.16L323.822 212.903L323.829 212.909L324.492 212.16ZM308.108 252.992L308.047 251.994L306.49 252.089L307.226 253.464L308.108 252.992ZM328.46 291.008L329.365 290.582L329.354 290.559L329.342 290.536L328.46 291.008ZM328.972 294.592L328.032 294.25L328.032 294.25L328.972 294.592ZM320.268 292.928L321.177 292.511L321.166 292.487L321.154 292.464L320.268 292.928ZM299.404 253.12L300.29 252.656L300.009 252.12H299.404V253.12ZM274.06 253.12V252.12H273.06V253.12H274.06ZM274.06 245.568H273.06V246.568H274.06V245.568ZM318.348 241.728L317.708 240.96L317.697 240.969L318.348 241.728ZM318.348 217.664L317.697 218.423L317.708 218.432L318.348 217.664ZM274.06 213.824V212.824H273.06V213.824H274.06ZM270.22 296V295C269.068 295 268.383 294.696 267.973 294.259C267.551 293.81 267.252 293.045 267.252 291.776H266.252H265.252C265.252 293.323 265.614 294.67 266.515 295.629C267.427 296.6 268.727 297 270.22 297V296ZM266.252 291.776H267.252V210.496H266.252H265.252V291.776H266.252ZM266.252 210.496H267.252C267.252 209.242 267.565 208.485 268.015 208.035C268.465 207.585 269.222 207.272 270.476 207.272V206.272V205.272C268.914 205.272 267.559 205.663 266.601 206.621C265.643 207.579 265.252 208.934 265.252 210.496H266.252ZM270.476 206.272V207.272H305.292V206.272V205.272H270.476V206.272ZM305.292 206.272V207.272C313.601 207.272 319.721 209.203 323.822 212.903L324.492 212.16L325.162 211.417C320.559 207.266 313.879 205.272 305.292 205.272V206.272ZM324.492 212.16L323.829 212.909C327.99 216.59 330.148 222.123 330.148 229.696H331.148H332.148C332.148 221.739 329.868 215.581 325.155 211.411L324.492 212.16ZM331.148 229.696H330.148C330.148 236.82 328.276 242.121 324.677 245.761C321.069 249.408 315.581 251.533 308.047 251.994L308.108 252.992L308.169 253.99C315.995 253.512 322.027 251.285 326.099 247.167C330.18 243.041 332.148 237.164 332.148 229.696H331.148ZM308.108 252.992L307.226 253.464L327.578 291.48L328.46 291.008L329.342 290.536L308.99 252.52L308.108 252.992ZM328.46 291.008L327.555 291.434C328.19 292.784 328.241 293.677 328.032 294.25L328.972 294.592L329.912 294.934C330.386 293.629 330.095 292.134 329.365 290.582L328.46 291.008ZM328.972 294.592L328.032 294.25C327.942 294.498 327.803 294.657 327.594 294.772C327.363 294.899 326.99 295 326.412 295V296V297C327.199 297 327.936 296.866 328.558 296.524C329.203 296.17 329.661 295.624 329.912 294.934L328.972 294.592ZM326.412 296V295H325.26V296V297H326.412V296ZM325.26 296V295C324.209 295 323.387 294.776 322.744 294.38C322.105 293.987 321.577 293.384 321.177 292.511L320.268 292.928L319.359 293.345C319.898 294.52 320.671 295.453 321.696 296.084C322.717 296.712 323.922 297 325.26 297V296ZM320.268 292.928L321.154 292.464L300.29 252.656L299.404 253.12L298.518 253.584L319.382 293.392L320.268 292.928ZM299.404 253.12V252.12H274.06V253.12V254.12H299.404V253.12ZM274.06 253.12H273.06V291.776H274.06H275.06V253.12H274.06ZM274.06 291.776H273.06C273.06 293.052 272.768 293.823 272.36 294.271C271.969 294.702 271.32 295 270.22 295V296V297C271.68 297 272.951 296.594 273.84 295.617C274.712 294.657 275.06 293.316 275.06 291.776H274.06ZM274.06 245.568V246.568H304.652V245.568V244.568H274.06V245.568ZM304.652 245.568V246.568C310.907 246.568 315.753 245.269 318.999 242.487L318.348 241.728L317.697 240.969C314.97 243.307 310.685 244.568 304.652 244.568V245.568ZM318.348 241.728L318.988 242.496C322.364 239.683 323.956 235.34 323.956 229.696H322.956H321.956C321.956 234.975 320.476 238.653 317.708 240.96L318.348 241.728ZM322.956 229.696H323.956C323.956 224.052 322.364 219.709 318.988 216.896L318.348 217.664L317.708 218.432C320.476 220.739 321.956 224.417 321.956 229.696H322.956ZM318.348 217.664L318.999 216.905C315.753 214.123 310.907 212.824 304.652 212.824V213.824V214.824C310.685 214.824 314.97 216.085 317.697 218.423L318.348 217.664ZM304.652 213.824V212.824H274.06V213.824V214.824H304.652V213.824ZM274.06 213.824H273.06V245.568H274.06H275.06V213.824H274.06ZM380.034 308.928L379.375 308.175L379.35 308.197L379.327 308.221L380.034 308.928ZM397.57 261.952L396.696 261.466L396.691 261.476L396.686 261.485L397.57 261.952ZM404.738 255.296L405.144 256.21L407.267 255.266L405.123 254.373L404.738 255.296ZM397.57 248.768L396.686 249.235L396.691 249.244L396.696 249.254L397.57 248.768ZM380.034 201.792L379.327 202.499L379.35 202.523L379.375 202.545L380.034 201.792ZM380.034 197.056L380.693 197.809L380.718 197.787L380.741 197.763L380.034 197.056ZM398.85 200.64L398.061 201.254L398.07 201.266L398.08 201.278L398.85 200.64ZM404.482 246.464L403.555 246.84L403.561 246.855L403.568 246.87L404.482 246.464ZM411.65 251.84L411.502 252.829L411.53 252.833L411.559 252.836L411.65 251.84ZM413.826 252.992L413.026 253.592L413.049 253.622L413.073 253.651L413.826 252.992ZM413.826 257.6L413.073 256.941L413.049 256.97L413.026 257L413.826 257.6ZM411.65 258.88L411.798 259.869L411.814 259.867L411.829 259.864L411.65 258.88ZM404.482 264.256L403.568 263.85L403.563 263.861L403.559 263.871L404.482 264.256ZM398.85 310.08L398.08 309.442L398.07 309.454L398.061 309.466L398.85 310.08ZM382.338 314.688V313.688C381.786 313.688 381.263 313.479 380.741 312.957L380.034 313.664L379.327 314.371C380.17 315.214 381.184 315.688 382.338 315.688V314.688ZM380.034 313.664L380.741 312.957C380.219 312.435 380.01 311.912 380.01 311.36H379.01H378.01C378.01 312.514 378.484 313.528 379.327 314.371L380.034 313.664ZM379.01 311.36H380.01C380.01 310.695 380.24 310.136 380.741 309.635L380.034 308.928L379.327 308.221C378.463 309.085 378.01 310.148 378.01 311.36H379.01ZM380.034 308.928L380.693 309.681C381.205 309.232 381.743 309.032 382.338 309.032V308.032V307.032C381.226 307.032 380.228 307.43 379.375 308.175L380.034 308.928ZM382.338 308.032V309.032H387.33V308.032V307.032H382.338V308.032ZM387.33 308.032V309.032C390.212 309.032 392.496 307.959 394.011 305.749C395.479 303.608 396.138 300.52 396.138 296.64H395.138H394.138C394.138 300.354 393.496 302.963 392.361 304.619C391.273 306.206 389.653 307.032 387.33 307.032V308.032ZM395.138 296.64H396.138V275.008H395.138H394.138V296.64H395.138ZM395.138 275.008H396.138C396.138 269.449 396.942 265.284 398.454 262.419L397.57 261.952L396.686 261.485C394.955 264.764 394.138 269.303 394.138 275.008H395.138ZM397.57 261.952L398.444 262.438C400.051 259.546 402.28 257.483 405.144 256.21L404.738 255.296L404.332 254.382C401.052 255.84 398.503 258.214 396.696 261.466L397.57 261.952ZM404.738 255.296L405.123 254.373C402.271 253.185 400.048 251.169 398.444 248.282L397.57 248.768L396.696 249.254C398.505 252.511 401.061 254.847 404.353 256.219L404.738 255.296ZM397.57 248.768L398.454 248.301C396.942 245.436 396.138 241.271 396.138 235.712H395.138H394.138C394.138 241.417 394.955 245.956 396.686 249.235L397.57 248.768ZM395.138 235.712H396.138V214.08H395.138H394.138V235.712H395.138ZM395.138 214.08H396.138C396.138 210.2 395.479 207.112 394.011 204.971C392.496 202.761 390.212 201.688 387.33 201.688V202.688V203.688C389.653 203.688 391.273 204.514 392.361 206.101C393.496 207.757 394.138 210.366 394.138 214.08H395.138ZM387.33 202.688V201.688H382.338V202.688V203.688H387.33V202.688ZM382.338 202.688V201.688C381.743 201.688 381.205 201.488 380.693 201.039L380.034 201.792L379.375 202.545C380.228 203.29 381.226 203.688 382.338 203.688V202.688ZM380.034 201.792L380.741 201.085C380.24 200.584 380.01 200.025 380.01 199.36H379.01H378.01C378.01 200.572 378.463 201.635 379.327 202.499L380.034 201.792ZM379.01 199.36H380.01C380.01 198.698 380.235 198.209 380.693 197.809L380.034 197.056L379.375 196.303C378.467 197.098 378.01 198.144 378.01 199.36H379.01ZM380.034 197.056L380.741 197.763C381.263 197.241 381.786 197.032 382.338 197.032V196.032V195.032C381.184 195.032 380.17 195.506 379.327 196.349L380.034 197.056ZM382.338 196.032V197.032H388.866V196.032V195.032H382.338V196.032ZM388.866 196.032V197.032C392.858 197.032 395.881 198.451 398.061 201.254L398.85 200.64L399.639 200.026C397.041 196.685 393.407 195.032 388.866 195.032V196.032ZM398.85 200.64L398.08 201.278C400.35 204.017 401.562 208.105 401.562 213.696H402.562H403.562C403.562 207.853 402.3 203.236 399.62 200.002L398.85 200.64ZM402.562 213.696H401.562V235.456H402.562H403.562V213.696H402.562ZM402.562 235.456H401.562C401.562 239.738 402.217 243.539 403.555 246.84L404.482 246.464L405.409 246.088C404.187 243.074 403.562 239.537 403.562 235.456H402.562ZM404.482 246.464L403.568 246.87C405.077 250.264 407.761 252.268 411.502 252.829L411.65 251.84L411.798 250.851C408.712 250.388 406.618 248.808 405.396 246.058L404.482 246.464ZM411.65 251.84L411.559 252.836C412.249 252.899 412.703 253.161 413.026 253.592L413.826 252.992L414.626 252.392C413.925 251.458 412.928 250.952 411.741 250.844L411.65 251.84ZM413.826 252.992L413.073 253.651C413.522 254.163 413.722 254.701 413.722 255.296H414.722H415.722C415.722 254.184 415.324 253.186 414.579 252.333L413.826 252.992ZM414.722 255.296H413.722C413.722 255.891 413.522 256.429 413.073 256.941L413.826 257.6L414.579 258.259C415.324 257.406 415.722 256.408 415.722 255.296H414.722ZM413.826 257.6L413.026 257C412.684 257.457 412.193 257.765 411.471 257.896L411.65 258.88L411.829 259.864C412.984 259.654 413.944 259.109 414.626 258.2L413.826 257.6ZM411.65 258.88L411.502 257.891C407.761 258.452 405.077 260.456 403.568 263.85L404.482 264.256L405.396 264.662C406.618 261.912 408.712 260.332 411.798 259.869L411.65 258.88ZM404.482 264.256L403.559 263.871C402.216 267.094 401.562 270.901 401.562 275.264H402.562H403.562C403.562 271.094 404.188 267.562 405.405 264.641L404.482 264.256ZM402.562 275.264H401.562V297.024H402.562H403.562V275.264H402.562ZM402.562 297.024H401.562C401.562 302.615 400.35 306.703 398.08 309.442L398.85 310.08L399.62 310.718C402.3 307.484 403.562 302.867 403.562 297.024H402.562ZM398.85 310.08L398.061 309.466C395.881 312.269 392.858 313.688 388.866 313.688V314.688V315.688C393.407 315.688 397.041 314.035 399.639 310.694L398.85 310.08ZM388.866 314.688V313.688H382.338V314.688V315.688H388.866V314.688Z" fill="black" mask="url(#path-2-outside-1_0_1)"/>
</svg>
