<svg width="32" height="32" viewBox="0 0 32 32" fill="none" xmlns="http://www.w3.org/2000/svg">
<rect width="32" height="32" fill="#1E1E1E"/>
<rect width="32" height="32" rx="16" fill="white"/>
<mask id="path-2-outside-1_0_1" maskUnits="userSpaceOnUse" x="2" y="11" width="27" height="12" fill="black">
<rect fill="white" x="2" y="11" width="27" height="12"/>
<path d="M5.39 21.43C5.10333 21.43 4.87667 21.3133 4.71 21.08C4.55 20.8467 4.47 20.5267 4.47 20.12V18.52C4.47 18.1533 4.42333 17.8333 4.33 17.56C4.24333 17.28 4.07 17.1133 3.81 17.06C3.70333 17.0333 3.65 16.9733 3.65 16.88C3.65 16.7867 3.70333 16.7267 3.81 16.7C4.07 16.6467 4.24333 16.4833 4.33 16.21C4.42333 15.93 4.47 15.6067 4.47 15.24V13.64C4.47 13.2333 4.55 12.9133 4.71 12.68C4.87667 12.4467 5.10333 12.33 5.39 12.33H5.8C5.85333 12.33 5.89667 12.3467 5.93 12.38C5.96333 12.4133 5.98 12.4567 5.98 12.51C5.98 12.6367 5.92 12.7 5.8 12.7H5.39C5.22333 12.7 5.08667 12.78 4.98 12.94C4.88 13.0933 4.83 13.3267 4.83 13.64V15.24C4.83 15.6933 4.77667 16.0467 4.67 16.3C4.57 16.5467 4.42 16.74 4.22 16.88C4.42 17.02 4.57 17.2133 4.67 17.46C4.77667 17.7067 4.83 18.06 4.83 18.52V20.12C4.83 20.4267 4.88 20.66 4.98 20.82C5.08667 20.98 5.22333 21.06 5.39 21.06H5.8C5.85333 21.06 5.89667 21.0767 5.93 21.11C5.96333 21.1433 5.98 21.1867 5.98 21.24C5.98 21.2867 5.96333 21.33 5.93 21.37C5.89667 21.41 5.85333 21.43 5.8 21.43H5.39ZM10.3105 20C10.1971 20 10.1405 19.9333 10.1405 19.8V13.19C10.1405 13.0567 10.2071 12.99 10.3405 12.99H13.1105C13.7771 12.99 14.2705 13.1433 14.5905 13.45C14.9105 13.7567 15.0705 14.18 15.0705 14.72C15.0705 15.26 14.9138 15.6833 14.6005 15.99C14.2938 16.29 13.8138 16.4467 13.1605 16.46L14.9705 19.76C15.0038 19.8267 15.0138 19.8833 15.0005 19.93C14.9871 19.9767 14.9538 20 14.9005 20H14.8605C14.7471 20 14.6671 19.9533 14.6205 19.86L12.7505 16.46H10.4805V19.8C10.4805 19.9333 10.4238 20 10.3105 20ZM10.4805 16.11H13.1105C13.6638 16.11 14.0705 15.9967 14.3305 15.77C14.5905 15.5433 14.7205 15.1933 14.7205 14.72C14.7205 14.2467 14.5905 13.9 14.3305 13.68C14.0705 13.4533 13.6638 13.34 13.1105 13.34H10.4805V16.11ZM16.707 20C16.5936 20 16.537 19.9333 16.537 19.8V13.19C16.537 13.0567 16.6036 12.99 16.737 12.99H19.507C20.1736 12.99 20.667 13.1433 20.987 13.45C21.307 13.7567 21.467 14.18 21.467 14.72C21.467 15.26 21.3103 15.6833 20.997 15.99C20.6903 16.29 20.2103 16.4467 19.557 16.46L21.367 19.76C21.4003 19.8267 21.4103 19.8833 21.397 19.93C21.3836 19.9767 21.3503 20 21.297 20H21.257C21.1436 20 21.0636 19.9533 21.017 19.86L19.147 16.46H16.877V19.8C16.877 19.9333 16.8203 20 16.707 20ZM16.877 16.11H19.507C20.0603 16.11 20.467 15.9967 20.727 15.77C20.987 15.5433 21.117 15.1933 21.117 14.72C21.117 14.2467 20.987 13.9 20.727 13.68C20.467 13.4533 20.0603 13.34 19.507 13.34H16.877V16.11ZM25.4562 21.43C25.4095 21.43 25.3662 21.41 25.3262 21.37C25.2928 21.33 25.2762 21.2867 25.2762 21.24C25.2762 21.1867 25.2928 21.1433 25.3262 21.11C25.3662 21.0767 25.4095 21.06 25.4562 21.06H25.8762C26.0428 21.06 26.1762 20.98 26.2762 20.82C26.3762 20.66 26.4262 20.4267 26.4262 20.12V18.52C26.4262 18.06 26.4795 17.7067 26.5862 17.46C26.6928 17.2133 26.8428 17.02 27.0362 16.88C26.8428 16.74 26.6928 16.5467 26.5862 16.3C26.4795 16.0467 26.4262 15.6933 26.4262 15.24V13.64C26.4262 13.3267 26.3762 13.0933 26.2762 12.94C26.1762 12.78 26.0428 12.7 25.8762 12.7H25.4562C25.3362 12.7 25.2762 12.6367 25.2762 12.51C25.2762 12.4567 25.2928 12.4133 25.3262 12.38C25.3662 12.3467 25.4095 12.33 25.4562 12.33H25.8762C26.1562 12.33 26.3795 12.4467 26.5462 12.68C26.7128 12.9133 26.7962 13.2333 26.7962 13.64V15.24C26.7962 15.6067 26.8395 15.93 26.9262 16.21C27.0128 16.4833 27.1862 16.6467 27.4462 16.7C27.5528 16.7267 27.6062 16.7867 27.6062 16.88C27.6062 16.9733 27.5528 17.0333 27.4462 17.06C27.1862 17.1133 27.0128 17.28 26.9262 17.56C26.8395 17.8333 26.7962 18.1533 26.7962 18.52V20.12C26.7962 20.5267 26.7128 20.8467 26.5462 21.08C26.3795 21.3133 26.1562 21.43 25.8762 21.43H25.4562Z"/>
</mask>
<path d="M5.39 21.43C5.10333 21.43 4.87667 21.3133 4.71 21.08C4.55 20.8467 4.47 20.5267 4.47 20.12V18.52C4.47 18.1533 4.42333 17.8333 4.33 17.56C4.24333 17.28 4.07 17.1133 3.81 17.06C3.70333 17.0333 3.65 16.9733 3.65 16.88C3.65 16.7867 3.70333 16.7267 3.81 16.7C4.07 16.6467 4.24333 16.4833 4.33 16.21C4.42333 15.93 4.47 15.6067 4.47 15.24V13.64C4.47 13.2333 4.55 12.9133 4.71 12.68C4.87667 12.4467 5.10333 12.33 5.39 12.33H5.8C5.85333 12.33 5.89667 12.3467 5.93 12.38C5.96333 12.4133 5.98 12.4567 5.98 12.51C5.98 12.6367 5.92 12.7 5.8 12.7H5.39C5.22333 12.7 5.08667 12.78 4.98 12.94C4.88 13.0933 4.83 13.3267 4.83 13.64V15.24C4.83 15.6933 4.77667 16.0467 4.67 16.3C4.57 16.5467 4.42 16.74 4.22 16.88C4.42 17.02 4.57 17.2133 4.67 17.46C4.77667 17.7067 4.83 18.06 4.83 18.52V20.12C4.83 20.4267 4.88 20.66 4.98 20.82C5.08667 20.98 5.22333 21.06 5.39 21.06H5.8C5.85333 21.06 5.89667 21.0767 5.93 21.11C5.96333 21.1433 5.98 21.1867 5.98 21.24C5.98 21.2867 5.96333 21.33 5.93 21.37C5.89667 21.41 5.85333 21.43 5.8 21.43H5.39ZM10.3105 20C10.1971 20 10.1405 19.9333 10.1405 19.8V13.19C10.1405 13.0567 10.2071 12.99 10.3405 12.99H13.1105C13.7771 12.99 14.2705 13.1433 14.5905 13.45C14.9105 13.7567 15.0705 14.18 15.0705 14.72C15.0705 15.26 14.9138 15.6833 14.6005 15.99C14.2938 16.29 13.8138 16.4467 13.1605 16.46L14.9705 19.76C15.0038 19.8267 15.0138 19.8833 15.0005 19.93C14.9871 19.9767 14.9538 20 14.9005 20H14.8605C14.7471 20 14.6671 19.9533 14.6205 19.86L12.7505 16.46H10.4805V19.8C10.4805 19.9333 10.4238 20 10.3105 20ZM10.4805 16.11H13.1105C13.6638 16.11 14.0705 15.9967 14.3305 15.77C14.5905 15.5433 14.7205 15.1933 14.7205 14.72C14.7205 14.2467 14.5905 13.9 14.3305 13.68C14.0705 13.4533 13.6638 13.34 13.1105 13.34H10.4805V16.11ZM16.707 20C16.5936 20 16.537 19.9333 16.537 19.8V13.19C16.537 13.0567 16.6036 12.99 16.737 12.99H19.507C20.1736 12.99 20.667 13.1433 20.987 13.45C21.307 13.7567 21.467 14.18 21.467 14.72C21.467 15.26 21.3103 15.6833 20.997 15.99C20.6903 16.29 20.2103 16.4467 19.557 16.46L21.367 19.76C21.4003 19.8267 21.4103 19.8833 21.397 19.93C21.3836 19.9767 21.3503 20 21.297 20H21.257C21.1436 20 21.0636 19.9533 21.017 19.86L19.147 16.46H16.877V19.8C16.877 19.9333 16.8203 20 16.707 20ZM16.877 16.11H19.507C20.0603 16.11 20.467 15.9967 20.727 15.77C20.987 15.5433 21.117 15.1933 21.117 14.72C21.117 14.2467 20.987 13.9 20.727 13.68C20.467 13.4533 20.0603 13.34 19.507 13.34H16.877V16.11ZM25.4562 21.43C25.4095 21.43 25.3662 21.41 25.3262 21.37C25.2928 21.33 25.2762 21.2867 25.2762 21.24C25.2762 21.1867 25.2928 21.1433 25.3262 21.11C25.3662 21.0767 25.4095 21.06 25.4562 21.06H25.8762C26.0428 21.06 26.1762 20.98 26.2762 20.82C26.3762 20.66 26.4262 20.4267 26.4262 20.12V18.52C26.4262 18.06 26.4795 17.7067 26.5862 17.46C26.6928 17.2133 26.8428 17.02 27.0362 16.88C26.8428 16.74 26.6928 16.5467 26.5862 16.3C26.4795 16.0467 26.4262 15.6933 26.4262 15.24V13.64C26.4262 13.3267 26.3762 13.0933 26.2762 12.94C26.1762 12.78 26.0428 12.7 25.8762 12.7H25.4562C25.3362 12.7 25.2762 12.6367 25.2762 12.51C25.2762 12.4567 25.2928 12.4133 25.3262 12.38C25.3662 12.3467 25.4095 12.33 25.4562 12.33H25.8762C26.1562 12.33 26.3795 12.4467 26.5462 12.68C26.7128 12.9133 26.7962 13.2333 26.7962 13.64V15.24C26.7962 15.6067 26.8395 15.93 26.9262 16.21C27.0128 16.4833 27.1862 16.6467 27.4462 16.7C27.5528 16.7267 27.6062 16.7867 27.6062 16.88C27.6062 16.9733 27.5528 17.0333 27.4462 17.06C27.1862 17.1133 27.0128 17.28 26.9262 17.56C26.8395 17.8333 26.7962 18.1533 26.7962 18.52V20.12C26.7962 20.5267 26.7128 20.8467 26.5462 21.08C26.3795 21.3133 26.1562 21.43 25.8762 21.43H25.4562Z" fill="black"/>
<path d="M4.71 21.08L3.88527 21.6455L3.89069 21.6534L3.89627 21.6612L4.71 21.08ZM4.33 17.56L3.37471 17.8557L3.37898 17.8695L3.38365 17.8831L4.33 17.56ZM3.81 17.06L3.56746 18.0301L3.58816 18.0353L3.60906 18.0396L3.81 17.06ZM3.81 16.7L3.60906 15.7204L3.58816 15.7247L3.56746 15.7299L3.81 16.7ZM4.33 16.21L3.38132 15.8938L3.37899 15.9007L3.37677 15.9078L4.33 16.21ZM4.71 12.68L3.89627 12.0988L3.89069 12.1066L3.88527 12.1145L4.71 12.68ZM4.98 12.94L4.14791 12.3853L4.14239 12.3937L4.98 12.94ZM4.67 16.3L3.74828 15.9119L3.74326 15.9243L4.67 16.3ZM4.22 16.88L3.64654 16.0608L2.47621 16.88L3.64654 17.6992L4.22 16.88ZM4.67 17.46L3.74326 17.8357L3.74758 17.8464L3.75214 17.8569L4.67 17.46ZM4.98 20.82L4.132 21.35L4.13979 21.3625L4.14795 21.3747L4.98 20.82ZM5.93 21.11L5.22289 21.8171L5.22289 21.8171L5.93 21.11ZM5.39 21.43V20.43C5.38582 20.43 5.41762 20.4302 5.46264 20.4534C5.50766 20.4765 5.52624 20.5023 5.52373 20.4988L4.71 21.08L3.89627 21.6612C4.25058 22.1573 4.78028 22.43 5.39 22.43V21.43ZM4.71 21.08L5.53473 20.5145C5.5288 20.5058 5.47 20.4093 5.47 20.12H4.47H3.47C3.47 20.6441 3.5712 21.1875 3.88527 21.6455L4.71 21.08ZM4.47 20.12H5.47V18.52H4.47H3.47V20.12H4.47ZM4.47 18.52H5.47C5.47 18.0716 5.4133 17.6379 5.27635 17.2369L4.33 17.56L3.38365 17.8831C3.43336 18.0287 3.47 18.235 3.47 18.52H4.47ZM4.33 17.56L5.28529 17.2643C5.10451 16.6803 4.6717 16.2159 4.01094 16.0804L3.81 17.06L3.60906 18.0396C3.57372 18.0324 3.50545 18.0069 3.44189 17.9458C3.38261 17.8888 3.37054 17.8422 3.37471 17.8557L4.33 17.56ZM3.81 17.06L4.05254 16.0899C4.1242 16.1078 4.28925 16.164 4.43741 16.3306C4.59952 16.513 4.65 16.7241 4.65 16.88H3.65H2.65C2.65 17.1293 2.72714 17.417 2.94259 17.6594C3.14409 17.886 3.38914 17.9856 3.56746 18.0301L3.81 17.06ZM3.65 16.88H4.65C4.65 17.0359 4.59952 17.247 4.43741 17.4294C4.28925 17.596 4.1242 17.6522 4.05254 17.6701L3.81 16.7L3.56746 15.7299C3.38914 15.7744 3.14409 15.874 2.94259 16.1006C2.72714 16.343 2.65 16.6307 2.65 16.88H3.65ZM3.81 16.7L4.01094 17.6796C4.65957 17.5466 5.09784 17.0969 5.28323 16.5122L4.33 16.21L3.37677 15.9078C3.37443 15.9151 3.38898 15.8665 3.4492 15.8097C3.51272 15.7499 3.57862 15.7266 3.60906 15.7204L3.81 16.7ZM4.33 16.21L5.27868 16.5262C5.41309 16.123 5.47 15.6892 5.47 15.24H4.47H3.47C3.47 15.5241 3.43358 15.737 3.38132 15.8938L4.33 16.21ZM4.47 15.24H5.47V13.64H4.47H3.47V15.24H4.47ZM4.47 13.64H5.47C5.47 13.3507 5.5288 13.2542 5.53473 13.2455L4.71 12.68L3.88527 12.1145C3.5712 12.5725 3.47 13.1159 3.47 13.64H4.47ZM4.71 12.68L5.52373 13.2612C5.52624 13.2577 5.50766 13.2835 5.46264 13.3066C5.41762 13.3298 5.38582 13.33 5.39 13.33V12.33V11.33C4.78028 11.33 4.25058 11.6027 3.89627 12.0988L4.71 12.68ZM5.39 12.33V13.33H5.8V12.33V11.33H5.39V12.33ZM5.8 12.33V13.33C5.72196 13.33 5.62211 13.3176 5.51352 13.2758C5.40255 13.2332 5.3036 13.1678 5.22289 13.0871L5.93 12.38L6.63711 11.6729C6.39099 11.4268 6.08058 11.33 5.8 11.33V12.33ZM5.93 12.38L5.22289 13.0871C5.14219 13.0064 5.07684 12.9075 5.03415 12.7965C4.99239 12.6879 4.98 12.588 4.98 12.51H5.98H6.98C6.98 12.2294 6.88322 11.919 6.63711 11.6729L5.93 12.38ZM5.98 12.51H4.98C4.98 12.4323 4.99743 12.1881 5.20905 11.9648C5.43026 11.7312 5.69164 11.7 5.8 11.7V12.7V13.7C6.02836 13.7 6.37974 13.6371 6.66095 13.3402C6.93257 13.0535 6.98 12.7144 6.98 12.51H5.98ZM5.8 12.7V11.7H5.39V12.7V13.7H5.8V12.7ZM5.39 12.7V11.7C4.8333 11.7 4.40691 11.9969 4.14795 12.3853L4.98 12.94L5.81205 13.4947C5.79898 13.5143 5.75535 13.5717 5.66768 13.623C5.57461 13.6775 5.47454 13.7 5.39 13.7V12.7ZM4.98 12.94L4.14239 12.3937C3.88506 12.7883 3.83 13.255 3.83 13.64H4.83H5.83C5.83 13.5332 5.83881 13.4698 5.8453 13.4395C5.85201 13.4082 5.8515 13.4343 5.81761 13.4863L4.98 12.94ZM4.83 13.64H3.83V15.24H4.83H5.83V13.64H4.83ZM4.83 15.24H3.83C3.83 15.6355 3.78041 15.8358 3.74836 15.9119L4.67 16.3L5.59164 16.6881C5.77292 16.2575 5.83 15.7511 5.83 15.24H4.83ZM4.67 16.3L3.74326 15.9243C3.70895 16.0089 3.67423 16.0414 3.64654 16.0608L4.22 16.88L4.79346 17.6992C5.16577 17.4386 5.43105 17.0844 5.59674 16.6757L4.67 16.3ZM4.22 16.88L3.64654 17.6992C3.67423 17.7186 3.70895 17.7511 3.74326 17.8357L4.67 17.46L5.59674 17.0843C5.43105 16.6756 5.16577 16.3214 4.79346 16.0608L4.22 16.88ZM4.67 17.46L3.75214 17.8569C3.77915 17.9194 3.83 18.113 3.83 18.52H4.83H5.83C5.83 18.007 5.77418 17.494 5.58786 17.0631L4.67 17.46ZM4.83 18.52H3.83V20.12H4.83H5.83V18.52H4.83ZM4.83 20.12H3.83C3.83 20.5083 3.88853 20.9604 4.132 21.35L4.98 20.82L5.828 20.29C5.8534 20.3306 5.85213 20.3473 5.8453 20.3155C5.83854 20.2839 5.83 20.2217 5.83 20.12H4.83ZM4.98 20.82L4.14795 21.3747C4.40691 21.7631 4.8333 22.06 5.39 22.06V21.06V20.06C5.47454 20.06 5.57461 20.0825 5.66768 20.137C5.75535 20.1883 5.79898 20.2457 5.81205 20.2653L4.98 20.82ZM5.39 21.06V22.06H5.8V21.06V20.06H5.39V21.06ZM5.8 21.06V22.06C5.72196 22.06 5.62211 22.0476 5.51352 22.0058C5.40255 21.9632 5.3036 21.8978 5.22289 21.8171L5.93 21.11L6.63711 20.4029C6.39099 20.1568 6.08058 20.06 5.8 20.06V21.06ZM5.93 21.11L5.22289 21.8171C5.14219 21.7364 5.07684 21.6375 5.03415 21.5265C4.99239 21.4179 4.98 21.318 4.98 21.24H5.98H6.98C6.98 20.9594 6.88322 20.649 6.63711 20.4029L5.93 21.11ZM5.98 21.24H4.98C4.98 21.0254 5.06382 20.8474 5.16178 20.7298L5.93 21.37L6.69822 22.0102C6.86285 21.8126 6.98 21.5479 6.98 21.24H5.98ZM5.93 21.37L5.16178 20.7298C5.2314 20.6463 5.32837 20.5648 5.45344 20.507C5.57784 20.4496 5.69906 20.43 5.8 20.43V21.43V22.43C6.14179 22.43 6.46963 22.2845 6.69822 22.0102L5.93 21.37ZM5.8 21.43V20.43H5.39V21.43V22.43H5.8V21.43ZM14.5905 13.45L13.8986 14.172L13.8986 14.172L14.5905 13.45ZM14.6005 15.99L15.2998 16.7048L15.2999 16.7047L14.6005 15.99ZM13.1605 16.46L13.1401 15.4602L11.49 15.4939L12.2837 16.9409L13.1605 16.46ZM14.9705 19.76L15.8649 19.3128L15.8564 19.2958L15.8472 19.2791L14.9705 19.76ZM15.0005 19.93L14.0389 19.6553L14.0389 19.6553L15.0005 19.93ZM14.6205 19.86L15.5149 19.4128L15.5061 19.3953L15.4967 19.3781L14.6205 19.86ZM12.7505 16.46L13.6267 15.9781L13.3417 15.46H12.7505V16.46ZM10.4805 16.46V15.46H9.48047V16.46H10.4805ZM10.4805 16.11H9.48047V17.11H10.4805V16.11ZM14.3305 15.77L14.9876 16.5238L14.9876 16.5238L14.3305 15.77ZM14.3305 13.68L13.6733 14.4338L13.6789 14.4386L13.6845 14.4434L14.3305 13.68ZM10.4805 13.34V12.34H9.48047V13.34H10.4805ZM10.3105 20V19C10.4543 19 10.7304 19.05 10.9449 19.3024C11.133 19.5236 11.1405 19.7486 11.1405 19.8H10.1405H9.14047C9.14047 19.9847 9.17628 20.3097 9.42103 20.5976C9.69223 20.9167 10.0533 21 10.3105 21V20ZM10.1405 19.8H11.1405V13.19H10.1405H9.14047V19.8H10.1405ZM10.1405 13.19H11.1405C11.1405 13.2775 11.1179 13.5268 10.8976 13.7471C10.6772 13.9675 10.4279 13.99 10.3405 13.99V12.99V11.99C10.1197 11.99 9.77038 12.0459 9.48336 12.3329C9.19635 12.6199 9.14047 12.9692 9.14047 13.19H10.1405ZM10.3405 12.99V13.99H13.1105V12.99V11.99H10.3405V12.99ZM13.1105 12.99V13.99C13.6468 13.99 13.84 14.1158 13.8986 14.172L14.5905 13.45L15.2824 12.728C14.701 12.1708 13.9075 11.99 13.1105 11.99V12.99ZM14.5905 13.45L13.8986 14.172C13.98 14.25 14.0705 14.3888 14.0705 14.72H15.0705H16.0705C16.0705 13.9712 15.8409 13.2633 15.2824 12.728L14.5905 13.45ZM15.0705 14.72H14.0705C14.0705 15.0574 13.9794 15.1986 13.901 15.2753L14.6005 15.99L15.2999 16.7047C15.8482 16.1681 16.0705 15.4626 16.0705 14.72H15.0705ZM14.6005 15.99L13.9012 15.2752C13.8515 15.3237 13.6686 15.4494 13.1401 15.4602L13.1605 16.46L13.1809 17.4598C13.959 17.4439 14.7361 17.2563 15.2998 16.7048L14.6005 15.99ZM13.1605 16.46L12.2837 16.9409L14.0937 20.2409L14.9705 19.76L15.8472 19.2791L14.0372 15.9791L13.1605 16.46ZM14.9705 19.76L14.076 20.2072C14.0554 20.166 13.9547 19.95 14.0389 19.6553L15.0005 19.93L15.962 20.2047C16.0729 19.8167 15.9522 19.4874 15.8649 19.3128L14.9705 19.76ZM15.0005 19.93L14.0389 19.6553C14.0827 19.5022 14.1861 19.3074 14.392 19.1633C14.5887 19.0256 14.7852 19 14.9005 19V20V21C15.0691 21 15.3089 20.9627 15.5389 20.8017C15.7781 20.6343 15.9049 20.4044 15.962 20.2047L15.0005 19.93ZM14.9005 20V19H14.8605V20V21H14.9005V20ZM14.8605 20V19C14.9414 19 15.0756 19.0174 15.2193 19.1012C15.3679 19.1879 15.4627 19.3083 15.5149 19.4128L14.6205 19.86L13.726 20.3072C13.8249 20.505 13.983 20.6954 14.2116 20.8288C14.4353 20.9593 14.6662 21 14.8605 21V20ZM14.6205 19.86L15.4967 19.3781L13.6267 15.9781L12.7505 16.46L11.8743 16.9419L13.7443 20.3419L14.6205 19.86ZM12.7505 16.46V15.46H10.4805V16.46V17.46H12.7505V16.46ZM10.4805 16.46H9.48047V19.8H10.4805H11.4805V16.46H10.4805ZM10.4805 19.8H9.48047C9.48047 19.7486 9.48794 19.5236 9.67603 19.3024C9.89057 19.05 10.1666 19 10.3105 19V20V21C10.5677 21 10.9287 20.9167 11.1999 20.5976C11.4447 20.3097 11.4805 19.9847 11.4805 19.8H10.4805ZM10.4805 16.11V17.11H13.1105V16.11V15.11H10.4805V16.11ZM13.1105 16.11V17.11C13.7678 17.11 14.4633 16.9809 14.9876 16.5238L14.3305 15.77L13.6733 15.0162C13.6776 15.0125 13.5598 15.11 13.1105 15.11V16.11ZM14.3305 15.77L14.9876 16.5238C15.5379 16.044 15.7205 15.3699 15.7205 14.72H14.7205H13.7205C13.7205 14.8682 13.6997 14.9511 13.6855 14.9893C13.6788 15.0074 13.6737 15.0152 13.6727 15.0167C13.6721 15.0175 13.6721 15.0176 13.6725 15.0171C13.6726 15.0169 13.6728 15.0167 13.673 15.0165C13.6731 15.0164 13.6732 15.0164 13.6732 15.0163C13.6733 15.0163 13.6733 15.0162 13.6733 15.0162L14.3305 15.77ZM14.7205 14.72H15.7205C15.7205 14.0724 15.5387 13.3924 14.9764 12.9166L14.3305 13.68L13.6845 14.4434C13.6729 14.4336 13.6763 14.4284 13.6866 14.4561C13.6996 14.4908 13.7205 14.5714 13.7205 14.72H14.7205ZM14.3305 13.68L14.9876 12.9262C14.4633 12.4691 13.7678 12.34 13.1105 12.34V13.34V14.34C13.5598 14.34 13.6776 14.4375 13.6733 14.4338L14.3305 13.68ZM13.1105 13.34V12.34H10.4805V13.34V14.34H13.1105V13.34ZM10.4805 13.34H9.48047V16.11H10.4805H11.4805V13.34H10.4805ZM20.987 13.45L20.295 14.172L20.295 14.172L20.987 13.45ZM20.997 15.99L21.6962 16.7048L21.6964 16.7047L20.997 15.99ZM19.557 16.46L19.5365 15.4602L17.8865 15.4939L18.6802 16.9409L19.557 16.46ZM21.367 19.76L22.2614 19.3128L22.2529 19.2958L22.2437 19.2791L21.367 19.76ZM21.397 19.93L20.4354 19.6553L20.4354 19.6553L21.397 19.93ZM21.017 19.86L21.9114 19.4128L21.9026 19.3953L21.8932 19.3781L21.017 19.86ZM19.147 16.46L20.0232 15.9781L19.7382 15.46H19.147V16.46ZM16.877 16.46V15.46H15.877V16.46H16.877ZM16.877 16.11H15.877V17.11H16.877V16.11ZM20.727 15.77L21.3841 16.5238L21.3841 16.5238L20.727 15.77ZM20.727 13.68L20.0698 14.4338L20.0754 14.4386L20.081 14.4434L20.727 13.68ZM16.877 13.34V12.34H15.877V13.34H16.877ZM16.707 20V19C16.8508 19 17.1269 19.05 17.3414 19.3024C17.5295 19.5236 17.537 19.7486 17.537 19.8H16.537H15.537C15.537 19.9847 15.5728 20.3097 15.8175 20.5976C16.0887 20.9167 16.4498 21 16.707 21V20ZM16.537 19.8H17.537V13.19H16.537H15.537V19.8H16.537ZM16.537 13.19H17.537C17.537 13.2775 17.5144 13.5268 17.2941 13.7471C17.0737 13.9675 16.8244 13.99 16.737 13.99V12.99V11.99C16.5161 11.99 16.1669 12.0459 15.8798 12.3329C15.5928 12.6199 15.537 12.9692 15.537 13.19H16.537ZM16.737 12.99V13.99H19.507V12.99V11.99H16.737V12.99ZM19.507 12.99V13.99C20.0433 13.99 20.2365 14.1158 20.295 14.172L20.987 13.45L21.6789 12.728C21.0974 12.1708 20.304 11.99 19.507 11.99V12.99ZM20.987 13.45L20.295 14.172C20.3765 14.25 20.467 14.3888 20.467 14.72H21.467H22.467C22.467 13.9712 22.2374 13.2633 21.6789 12.728L20.987 13.45ZM21.467 14.72H20.467C20.467 15.0574 20.3759 15.1986 20.2975 15.2753L20.997 15.99L21.6964 16.7047C22.2447 16.1681 22.467 15.4626 22.467 14.72H21.467ZM20.997 15.99L20.2977 15.2752C20.248 15.3237 20.065 15.4494 19.5365 15.4602L19.557 16.46L19.5774 17.4598C20.3555 17.4439 21.1326 17.2563 21.6962 16.7048L20.997 15.99ZM19.557 16.46L18.6802 16.9409L20.4902 20.2409L21.367 19.76L22.2437 19.2791L20.4337 15.9791L19.557 16.46ZM21.367 19.76L20.4725 20.2072C20.4519 20.166 20.3512 19.95 20.4354 19.6553L21.397 19.93L22.3585 20.2047C22.4693 19.8167 22.3487 19.4874 22.2614 19.3128L21.367 19.76ZM21.397 19.93L20.4354 19.6553C20.4792 19.5022 20.5826 19.3074 20.7885 19.1633C20.9852 19.0256 21.1816 19 21.297 19V20V21C21.4656 21 21.7054 20.9627 21.9354 20.8017C22.1746 20.6343 22.3014 20.4044 22.3585 20.2047L21.397 19.93ZM21.297 20V19H21.257V20V21H21.297V20ZM21.257 20V19C21.3379 19 21.4721 19.0174 21.6158 19.1012C21.7644 19.1879 21.8592 19.3083 21.9114 19.4128L21.017 19.86L20.1225 20.3072C20.2214 20.505 20.3795 20.6954 20.6081 20.8288C20.8318 20.9593 21.0627 21 21.257 21V20ZM21.017 19.86L21.8932 19.3781L20.0232 15.9781L19.147 16.46L18.2707 16.9419L20.1407 20.3419L21.017 19.86ZM19.147 16.46V15.46H16.877V16.46V17.46H19.147V16.46ZM16.877 16.46H15.877V19.8H16.877H17.877V16.46H16.877ZM16.877 19.8H15.877C15.877 19.7486 15.8844 19.5236 16.0725 19.3024C16.2871 19.05 16.5631 19 16.707 19V20V21C16.9641 21 17.3252 20.9167 17.5964 20.5976C17.8411 20.3097 17.877 19.9847 17.877 19.8H16.877ZM16.877 16.11V17.11H19.507V16.11V15.11H16.877V16.11ZM19.507 16.11V17.11C20.1643 17.11 20.8598 16.9809 21.3841 16.5238L20.727 15.77L20.0698 15.0162C20.0741 15.0125 19.9563 15.11 19.507 15.11V16.11ZM20.727 15.77L21.3841 16.5238C21.9344 16.044 22.117 15.3699 22.117 14.72H21.117H20.117C20.117 14.8682 20.0962 14.9511 20.082 14.9893C20.0753 15.0074 20.0702 15.0152 20.0692 15.0167C20.0686 15.0175 20.0685 15.0176 20.0689 15.0171C20.0691 15.0169 20.0693 15.0167 20.0695 15.0165C20.0696 15.0164 20.0697 15.0164 20.0697 15.0163C20.0698 15.0163 20.0698 15.0162 20.0698 15.0162L20.727 15.77ZM21.117 14.72H22.117C22.117 14.0724 21.9352 13.3924 21.3729 12.9166L20.727 13.68L20.081 14.4434C20.0694 14.4336 20.0727 14.4284 20.0831 14.4561C20.0961 14.4908 20.117 14.5714 20.117 14.72H21.117ZM20.727 13.68L21.3841 12.9262C20.8598 12.4691 20.1643 12.34 19.507 12.34V13.34V14.34C19.9563 14.34 20.0741 14.4375 20.0698 14.4338L20.727 13.68ZM19.507 13.34V12.34H16.877V13.34V14.34H19.507V13.34ZM16.877 13.34H15.877V16.11H16.877H17.877V13.34H16.877ZM25.3262 21.37L24.558 22.0102L24.587 22.045L24.6191 22.0771L25.3262 21.37ZM25.3262 21.11L24.686 20.3418L24.6511 20.3708L24.6191 20.4029L25.3262 21.11ZM26.2762 20.82L25.4282 20.29L25.4282 20.29L26.2762 20.82ZM26.5862 17.46L27.504 17.8569L27.504 17.8569L26.5862 17.46ZM27.0362 16.88L27.6227 17.6899L28.7412 16.88L27.6227 16.0701L27.0362 16.88ZM26.5862 16.3L25.6645 16.6881L25.6683 16.6969L26.5862 16.3ZM26.2762 12.94L25.4282 13.47L25.4333 13.4782L25.4386 13.4863L26.2762 12.94ZM25.3262 12.38L24.686 11.6118L24.6511 11.6408L24.6191 11.6729L25.3262 12.38ZM26.5462 12.68L27.3599 12.0988L27.3599 12.0988L26.5462 12.68ZM26.9262 16.21L25.9709 16.5057L25.9729 16.5122L26.9262 16.21ZM27.4462 16.7L27.6887 15.7299L27.668 15.7247L27.6471 15.7204L27.4462 16.7ZM27.4462 17.06L27.6471 18.0396L27.668 18.0353L27.6887 18.0301L27.4462 17.06ZM26.9262 17.56L27.8794 17.8623L27.8815 17.8557L26.9262 17.56ZM26.5462 21.08L25.7324 20.4988L25.7324 20.4988L26.5462 21.08ZM25.4562 21.43V20.43C25.7293 20.43 25.9282 20.5578 26.0333 20.6629L25.3262 21.37L24.6191 22.0771C24.8041 22.2622 25.0897 22.43 25.4562 22.43V21.43ZM25.3262 21.37L26.0944 20.7298C26.1924 20.8474 26.2762 21.0254 26.2762 21.24H25.2762H24.2762C24.2762 21.5479 24.3933 21.8126 24.558 22.0102L25.3262 21.37ZM25.2762 21.24H26.2762C26.2762 21.318 26.2638 21.4179 26.222 21.5265C26.1793 21.6375 26.114 21.7364 26.0333 21.8171L25.3262 21.11L24.6191 20.4029C24.373 20.649 24.2762 20.9594 24.2762 21.24H25.2762ZM25.3262 21.11L25.9664 21.8782C25.8488 21.9762 25.6708 22.06 25.4562 22.06V21.06V20.06C25.1483 20.06 24.8835 20.1772 24.686 20.3418L25.3262 21.11ZM25.4562 21.06V22.06H25.8762V21.06V20.06H25.4562V21.06ZM25.8762 21.06V22.06C26.4383 22.06 26.87 21.7566 27.1242 21.35L26.2762 20.82L25.4282 20.29C25.4443 20.2643 25.4919 20.1994 25.5867 20.1425C25.6866 20.0825 25.7918 20.06 25.8762 20.06V21.06ZM26.2762 20.82L27.1242 21.35C27.3676 20.9604 27.4262 20.5083 27.4262 20.12H26.4262H25.4262C25.4262 20.2217 25.4176 20.2839 25.4109 20.3155C25.404 20.3473 25.4028 20.3306 25.4282 20.29L26.2762 20.82ZM26.4262 20.12H27.4262V18.52H26.4262H25.4262V20.12H26.4262ZM26.4262 18.52H27.4262C27.4262 18.113 27.477 17.9194 27.504 17.8569L26.5862 17.46L25.6683 17.0631C25.482 17.494 25.4262 18.007 25.4262 18.52H26.4262ZM26.5862 17.46L27.504 17.8569C27.5485 17.754 27.5926 17.7118 27.6227 17.6899L27.0362 16.88L26.4497 16.0701C26.0931 16.3282 25.8371 16.6727 25.6683 17.0631L26.5862 17.46ZM27.0362 16.88L27.6227 16.0701C27.5926 16.0482 27.5485 16.006 27.504 15.9031L26.5862 16.3L25.6683 16.6969C25.8371 17.0873 26.0931 17.4318 26.4497 17.6899L27.0362 16.88ZM26.5862 16.3L27.5078 15.9119C27.4758 15.8358 27.4262 15.6355 27.4262 15.24H26.4262H25.4262C25.4262 15.7511 25.4833 16.2575 25.6645 16.6881L26.5862 16.3ZM26.4262 15.24H27.4262V13.64H26.4262H25.4262V15.24H26.4262ZM26.4262 13.64H27.4262C27.4262 13.255 27.3711 12.7883 27.1138 12.3937L26.2762 12.94L25.4386 13.4863C25.4047 13.4343 25.4042 13.4082 25.4109 13.4395C25.4174 13.4698 25.4262 13.5332 25.4262 13.64H26.4262ZM26.2762 12.94L27.1242 12.41C26.87 12.0034 26.4383 11.7 25.8762 11.7V12.7V13.7C25.7918 13.7 25.6866 13.6775 25.5867 13.6175C25.4919 13.5606 25.4443 13.4957 25.4282 13.47L26.2762 12.94ZM25.8762 12.7V11.7H25.4562V12.7V13.7H25.8762V12.7ZM25.4562 12.7V11.7C25.5645 11.7 25.8259 11.7312 26.0471 11.9648C26.2587 12.1881 26.2762 12.4323 26.2762 12.51H25.2762H24.2762C24.2762 12.7144 24.3236 13.0535 24.5952 13.3402C24.8764 13.6371 25.2278 13.7 25.4562 13.7V12.7ZM25.2762 12.51H26.2762C26.2762 12.588 26.2638 12.6879 26.222 12.7965C26.1793 12.9075 26.114 13.0064 26.0333 13.0871L25.3262 12.38L24.6191 11.6729C24.373 11.919 24.2762 12.2294 24.2762 12.51H25.2762ZM25.3262 12.38L25.9664 13.1482C25.8488 13.2462 25.6708 13.33 25.4562 13.33V12.33V11.33C25.1483 11.33 24.8835 11.4472 24.686 11.6118L25.3262 12.38ZM25.4562 12.33V13.33H25.8762V12.33V11.33H25.4562V12.33ZM25.8762 12.33V13.33C25.8765 13.33 25.8668 13.33 25.8497 13.326C25.8323 13.322 25.8117 13.3149 25.7907 13.3038C25.7449 13.28 25.7277 13.2547 25.7324 13.2612L26.5462 12.68L27.3599 12.0988C27.0109 11.6101 26.4883 11.33 25.8762 11.33V12.33ZM26.5462 12.68L25.7324 13.2612C25.7368 13.2674 25.7962 13.3576 25.7962 13.64H26.7962H27.7962C27.7962 13.1091 27.6889 12.5593 27.3599 12.0988L26.5462 12.68ZM26.7962 13.64H25.7962V15.24H26.7962H27.7962V13.64H26.7962ZM26.7962 15.24H25.7962C25.7962 15.6829 25.8482 16.1094 25.9709 16.5057L26.9262 16.21L27.8815 15.9143C27.8308 15.7506 27.7962 15.5304 27.7962 15.24H26.7962ZM26.9262 16.21L25.9729 16.5122C26.1583 17.0969 26.5966 17.5466 27.2452 17.6796L27.4462 16.7L27.6471 15.7204C27.6776 15.7266 27.7434 15.7499 27.807 15.8097C27.8672 15.8665 27.8817 15.9151 27.8794 15.9078L26.9262 16.21ZM27.4462 16.7L27.2036 17.6701C27.132 17.6522 26.9669 17.596 26.8188 17.4294C26.6567 17.247 26.6062 17.0359 26.6062 16.88H27.6062H28.6062C28.6062 16.6307 28.529 16.343 28.3136 16.1006C28.1121 15.874 27.867 15.7744 27.6887 15.7299L27.4462 16.7ZM27.6062 16.88H26.6062C26.6062 16.7241 26.6567 16.513 26.8188 16.3306C26.9669 16.164 27.132 16.1078 27.2036 16.0899L27.4462 17.06L27.6887 18.0301C27.867 17.9856 28.1121 17.886 28.3136 17.6594C28.529 17.417 28.6062 17.1293 28.6062 16.88H27.6062ZM27.4462 17.06L27.2452 16.0804C26.5845 16.2159 26.1517 16.6803 25.9709 17.2643L26.9262 17.56L27.8815 17.8557C27.8856 17.8422 27.8736 17.8888 27.8143 17.9458C27.7507 18.0069 27.6824 18.0324 27.6471 18.0396L27.4462 17.06ZM26.9262 17.56L25.9729 17.2578C25.848 17.6517 25.7962 18.0779 25.7962 18.52H26.7962H27.7962C27.7962 18.2288 27.831 18.015 27.8794 17.8622L26.9262 17.56ZM26.7962 18.52H25.7962V20.12H26.7962H27.7962V18.52H26.7962ZM26.7962 20.12H25.7962C25.7962 20.4024 25.7368 20.4926 25.7324 20.4988L26.5462 21.08L27.3599 21.6612C27.6889 21.2007 27.7962 20.6509 27.7962 20.12H26.7962ZM26.5462 21.08L25.7324 20.4988C25.7277 20.5053 25.7449 20.48 25.7907 20.4562C25.8117 20.4451 25.8323 20.438 25.8497 20.434C25.8668 20.43 25.8765 20.43 25.8762 20.43V21.43V22.43C26.4883 22.43 27.0109 22.1499 27.3599 21.6612L26.5462 21.08ZM25.8762 21.43V20.43H25.4562V21.43V22.43H25.8762V21.43Z" fill="black" mask="url(#path-2-outside-1_0_1)"/>
</svg>
